%TF.GenerationSoftware,KiCad,Pcbnew,8.0.4*%
%TF.CreationDate,2024-12-21T23:10:03-05:00*%
%TF.ProjectId,Reaction Wheel,52656163-7469-46f6-9e20-576865656c2e,rev?*%
%TF.SameCoordinates,Original*%
%TF.FileFunction,Soldermask,Top*%
%TF.FilePolarity,Negative*%
%FSLAX46Y46*%
G04 Gerber Fmt 4.6, Leading zero omitted, Abs format (unit mm)*
G04 Created by KiCad (PCBNEW 8.0.4) date 2024-12-21 23:10:03*
%MOMM*%
%LPD*%
G01*
G04 APERTURE LIST*
G04 Aperture macros list*
%AMRoundRect*
0 Rectangle with rounded corners*
0 $1 Rounding radius*
0 $2 $3 $4 $5 $6 $7 $8 $9 X,Y pos of 4 corners*
0 Add a 4 corners polygon primitive as box body*
4,1,4,$2,$3,$4,$5,$6,$7,$8,$9,$2,$3,0*
0 Add four circle primitives for the rounded corners*
1,1,$1+$1,$2,$3*
1,1,$1+$1,$4,$5*
1,1,$1+$1,$6,$7*
1,1,$1+$1,$8,$9*
0 Add four rect primitives between the rounded corners*
20,1,$1+$1,$2,$3,$4,$5,0*
20,1,$1+$1,$4,$5,$6,$7,0*
20,1,$1+$1,$6,$7,$8,$9,0*
20,1,$1+$1,$8,$9,$2,$3,0*%
G04 Aperture macros list end*
%ADD10R,1.800000X1.800000*%
%ADD11C,1.800000*%
%ADD12R,1.700000X1.700000*%
%ADD13O,1.700000X1.700000*%
%ADD14RoundRect,0.250000X-0.625000X0.312500X-0.625000X-0.312500X0.625000X-0.312500X0.625000X0.312500X0*%
%ADD15RoundRect,0.225000X0.250000X-0.225000X0.250000X0.225000X-0.250000X0.225000X-0.250000X-0.225000X0*%
%ADD16RoundRect,0.225000X-0.225000X-0.250000X0.225000X-0.250000X0.225000X0.250000X-0.225000X0.250000X0*%
%ADD17R,1.600000X1.600000*%
%ADD18O,1.600000X1.600000*%
%ADD19C,1.000000*%
%ADD20R,1.500000X1.000000*%
G04 APERTURE END LIST*
D10*
%TO.C,D1*%
X55500000Y-63540000D03*
D11*
X55500000Y-61000000D03*
%TD*%
D12*
%TO.C,J3*%
X75210000Y-58025000D03*
D13*
X77750000Y-58025000D03*
X75210000Y-55485000D03*
X77750000Y-55485000D03*
X75210000Y-52945000D03*
X77750000Y-52945000D03*
%TD*%
D14*
%TO.C,R1*%
X55500000Y-55450000D03*
X55500000Y-58375000D03*
%TD*%
D15*
%TO.C,C3*%
X57000000Y-73750000D03*
X57000000Y-72200000D03*
%TD*%
D16*
%TO.C,C2*%
X70000000Y-72000000D03*
X71550000Y-72000000D03*
%TD*%
D12*
%TO.C,J2*%
X50500000Y-75500000D03*
D13*
X50500000Y-72960000D03*
X50500000Y-70420000D03*
X50500000Y-67880000D03*
%TD*%
D15*
%TO.C,C4*%
X54500000Y-73750000D03*
X54500000Y-72200000D03*
%TD*%
D12*
%TO.C,J1*%
X66025000Y-97625000D03*
D13*
X63485000Y-97625000D03*
X60945000Y-97625000D03*
%TD*%
D17*
%TO.C,U2*%
X59880000Y-54960000D03*
D18*
X59880000Y-57500000D03*
X59880000Y-60040000D03*
X59880000Y-62580000D03*
X59880000Y-65120000D03*
X59880000Y-67660000D03*
X59880000Y-70200000D03*
X59880000Y-72740000D03*
X59880000Y-75280000D03*
X59880000Y-77820000D03*
X59880000Y-80360000D03*
X59880000Y-82900000D03*
X59880000Y-85440000D03*
X59880000Y-87980000D03*
X67500000Y-87980000D03*
X67500000Y-85440000D03*
X67500000Y-82900000D03*
X67500000Y-80360000D03*
X67500000Y-77820000D03*
X67500000Y-75280000D03*
X67500000Y-72740000D03*
X67500000Y-70200000D03*
X67500000Y-67660000D03*
X67500000Y-65120000D03*
X67500000Y-62580000D03*
X67500000Y-60040000D03*
X67500000Y-57500000D03*
X67500000Y-54960000D03*
%TD*%
D19*
%TO.C,Y2*%
X54500000Y-76500000D03*
X56400000Y-76500000D03*
%TD*%
D12*
%TO.C,TP1*%
X82000000Y-106000000D03*
%TD*%
D20*
%TO.C,JP1*%
X61000000Y-92200000D03*
X61000000Y-93500000D03*
%TD*%
D16*
%TO.C,C1*%
X70000000Y-70500000D03*
X71550000Y-70500000D03*
%TD*%
M02*
