%TF.GenerationSoftware,KiCad,Pcbnew,8.0.4*%
%TF.CreationDate,2024-12-21T23:10:03-05:00*%
%TF.ProjectId,Reaction Wheel,52656163-7469-46f6-9e20-576865656c2e,rev?*%
%TF.SameCoordinates,Original*%
%TF.FileFunction,Copper,L1,Top*%
%TF.FilePolarity,Positive*%
%FSLAX46Y46*%
G04 Gerber Fmt 4.6, Leading zero omitted, Abs format (unit mm)*
G04 Created by KiCad (PCBNEW 8.0.4) date 2024-12-21 23:10:03*
%MOMM*%
%LPD*%
G01*
G04 APERTURE LIST*
G04 Aperture macros list*
%AMRoundRect*
0 Rectangle with rounded corners*
0 $1 Rounding radius*
0 $2 $3 $4 $5 $6 $7 $8 $9 X,Y pos of 4 corners*
0 Add a 4 corners polygon primitive as box body*
4,1,4,$2,$3,$4,$5,$6,$7,$8,$9,$2,$3,0*
0 Add four circle primitives for the rounded corners*
1,1,$1+$1,$2,$3*
1,1,$1+$1,$4,$5*
1,1,$1+$1,$6,$7*
1,1,$1+$1,$8,$9*
0 Add four rect primitives between the rounded corners*
20,1,$1+$1,$2,$3,$4,$5,0*
20,1,$1+$1,$4,$5,$6,$7,0*
20,1,$1+$1,$6,$7,$8,$9,0*
20,1,$1+$1,$8,$9,$2,$3,0*%
G04 Aperture macros list end*
%ADD10C,0.300000*%
%TA.AperFunction,NonConductor*%
%ADD11C,0.300000*%
%TD*%
%TA.AperFunction,NonConductor*%
%ADD12C,0.200000*%
%TD*%
%TA.AperFunction,EtchedComponent*%
%ADD13C,0.000000*%
%TD*%
%TA.AperFunction,ComponentPad*%
%ADD14R,1.800000X1.800000*%
%TD*%
%TA.AperFunction,ComponentPad*%
%ADD15C,1.800000*%
%TD*%
%TA.AperFunction,ComponentPad*%
%ADD16R,1.700000X1.700000*%
%TD*%
%TA.AperFunction,ComponentPad*%
%ADD17O,1.700000X1.700000*%
%TD*%
%TA.AperFunction,SMDPad,CuDef*%
%ADD18RoundRect,0.250000X-0.625000X0.312500X-0.625000X-0.312500X0.625000X-0.312500X0.625000X0.312500X0*%
%TD*%
%TA.AperFunction,SMDPad,CuDef*%
%ADD19RoundRect,0.225000X0.250000X-0.225000X0.250000X0.225000X-0.250000X0.225000X-0.250000X-0.225000X0*%
%TD*%
%TA.AperFunction,SMDPad,CuDef*%
%ADD20RoundRect,0.225000X-0.225000X-0.250000X0.225000X-0.250000X0.225000X0.250000X-0.225000X0.250000X0*%
%TD*%
%TA.AperFunction,ComponentPad*%
%ADD21R,1.600000X1.600000*%
%TD*%
%TA.AperFunction,ComponentPad*%
%ADD22O,1.600000X1.600000*%
%TD*%
%TA.AperFunction,ComponentPad*%
%ADD23C,1.000000*%
%TD*%
%TA.AperFunction,SMDPad,CuDef*%
%ADD24R,1.500000X1.000000*%
%TD*%
%TA.AperFunction,ViaPad*%
%ADD25C,0.600000*%
%TD*%
%TA.AperFunction,Conductor*%
%ADD26C,0.200000*%
%TD*%
G04 APERTURE END LIST*
D10*
D11*
X89878328Y-85464284D02*
X89878328Y-85749998D01*
X89878328Y-85749998D02*
X89949757Y-85892855D01*
X89949757Y-85892855D02*
X90021185Y-85964284D01*
X90021185Y-85964284D02*
X90235471Y-86107141D01*
X90235471Y-86107141D02*
X90521185Y-86178569D01*
X90521185Y-86178569D02*
X91092614Y-86178569D01*
X91092614Y-86178569D02*
X91235471Y-86107141D01*
X91235471Y-86107141D02*
X91306900Y-86035712D01*
X91306900Y-86035712D02*
X91378328Y-85892855D01*
X91378328Y-85892855D02*
X91378328Y-85607141D01*
X91378328Y-85607141D02*
X91306900Y-85464284D01*
X91306900Y-85464284D02*
X91235471Y-85392855D01*
X91235471Y-85392855D02*
X91092614Y-85321426D01*
X91092614Y-85321426D02*
X90735471Y-85321426D01*
X90735471Y-85321426D02*
X90592614Y-85392855D01*
X90592614Y-85392855D02*
X90521185Y-85464284D01*
X90521185Y-85464284D02*
X90449757Y-85607141D01*
X90449757Y-85607141D02*
X90449757Y-85892855D01*
X90449757Y-85892855D02*
X90521185Y-86035712D01*
X90521185Y-86035712D02*
X90592614Y-86107141D01*
X90592614Y-86107141D02*
X90735471Y-86178569D01*
X91378328Y-83892855D02*
X91378328Y-84749998D01*
X91378328Y-84321427D02*
X89878328Y-84321427D01*
X89878328Y-84321427D02*
X90092614Y-84464284D01*
X90092614Y-84464284D02*
X90235471Y-84607141D01*
X90235471Y-84607141D02*
X90306900Y-84749998D01*
X91235471Y-83249999D02*
X91306900Y-83178570D01*
X91306900Y-83178570D02*
X91378328Y-83249999D01*
X91378328Y-83249999D02*
X91306900Y-83321427D01*
X91306900Y-83321427D02*
X91235471Y-83249999D01*
X91235471Y-83249999D02*
X91378328Y-83249999D01*
X89878328Y-81821427D02*
X89878328Y-82535713D01*
X89878328Y-82535713D02*
X90592614Y-82607141D01*
X90592614Y-82607141D02*
X90521185Y-82535713D01*
X90521185Y-82535713D02*
X90449757Y-82392856D01*
X90449757Y-82392856D02*
X90449757Y-82035713D01*
X90449757Y-82035713D02*
X90521185Y-81892856D01*
X90521185Y-81892856D02*
X90592614Y-81821427D01*
X90592614Y-81821427D02*
X90735471Y-81749998D01*
X90735471Y-81749998D02*
X91092614Y-81749998D01*
X91092614Y-81749998D02*
X91235471Y-81821427D01*
X91235471Y-81821427D02*
X91306900Y-81892856D01*
X91306900Y-81892856D02*
X91378328Y-82035713D01*
X91378328Y-82035713D02*
X91378328Y-82392856D01*
X91378328Y-82392856D02*
X91306900Y-82535713D01*
X91306900Y-82535713D02*
X91235471Y-82607141D01*
X89878328Y-80821427D02*
X89878328Y-80678570D01*
X89878328Y-80678570D02*
X89949757Y-80535713D01*
X89949757Y-80535713D02*
X90021185Y-80464285D01*
X90021185Y-80464285D02*
X90164042Y-80392856D01*
X90164042Y-80392856D02*
X90449757Y-80321427D01*
X90449757Y-80321427D02*
X90806900Y-80321427D01*
X90806900Y-80321427D02*
X91092614Y-80392856D01*
X91092614Y-80392856D02*
X91235471Y-80464285D01*
X91235471Y-80464285D02*
X91306900Y-80535713D01*
X91306900Y-80535713D02*
X91378328Y-80678570D01*
X91378328Y-80678570D02*
X91378328Y-80821427D01*
X91378328Y-80821427D02*
X91306900Y-80964285D01*
X91306900Y-80964285D02*
X91235471Y-81035713D01*
X91235471Y-81035713D02*
X91092614Y-81107142D01*
X91092614Y-81107142D02*
X90806900Y-81178570D01*
X90806900Y-81178570D02*
X90449757Y-81178570D01*
X90449757Y-81178570D02*
X90164042Y-81107142D01*
X90164042Y-81107142D02*
X90021185Y-81035713D01*
X90021185Y-81035713D02*
X89949757Y-80964285D01*
X89949757Y-80964285D02*
X89878328Y-80821427D01*
X89878328Y-79392856D02*
X89878328Y-79249999D01*
X89878328Y-79249999D02*
X89949757Y-79107142D01*
X89949757Y-79107142D02*
X90021185Y-79035714D01*
X90021185Y-79035714D02*
X90164042Y-78964285D01*
X90164042Y-78964285D02*
X90449757Y-78892856D01*
X90449757Y-78892856D02*
X90806900Y-78892856D01*
X90806900Y-78892856D02*
X91092614Y-78964285D01*
X91092614Y-78964285D02*
X91235471Y-79035714D01*
X91235471Y-79035714D02*
X91306900Y-79107142D01*
X91306900Y-79107142D02*
X91378328Y-79249999D01*
X91378328Y-79249999D02*
X91378328Y-79392856D01*
X91378328Y-79392856D02*
X91306900Y-79535714D01*
X91306900Y-79535714D02*
X91235471Y-79607142D01*
X91235471Y-79607142D02*
X91092614Y-79678571D01*
X91092614Y-79678571D02*
X90806900Y-79749999D01*
X90806900Y-79749999D02*
X90449757Y-79749999D01*
X90449757Y-79749999D02*
X90164042Y-79678571D01*
X90164042Y-79678571D02*
X90021185Y-79607142D01*
X90021185Y-79607142D02*
X89949757Y-79535714D01*
X89949757Y-79535714D02*
X89878328Y-79392856D01*
X89878328Y-77964285D02*
X89878328Y-77821428D01*
X89878328Y-77821428D02*
X89949757Y-77678571D01*
X89949757Y-77678571D02*
X90021185Y-77607143D01*
X90021185Y-77607143D02*
X90164042Y-77535714D01*
X90164042Y-77535714D02*
X90449757Y-77464285D01*
X90449757Y-77464285D02*
X90806900Y-77464285D01*
X90806900Y-77464285D02*
X91092614Y-77535714D01*
X91092614Y-77535714D02*
X91235471Y-77607143D01*
X91235471Y-77607143D02*
X91306900Y-77678571D01*
X91306900Y-77678571D02*
X91378328Y-77821428D01*
X91378328Y-77821428D02*
X91378328Y-77964285D01*
X91378328Y-77964285D02*
X91306900Y-78107143D01*
X91306900Y-78107143D02*
X91235471Y-78178571D01*
X91235471Y-78178571D02*
X91092614Y-78250000D01*
X91092614Y-78250000D02*
X90806900Y-78321428D01*
X90806900Y-78321428D02*
X90449757Y-78321428D01*
X90449757Y-78321428D02*
X90164042Y-78250000D01*
X90164042Y-78250000D02*
X90021185Y-78178571D01*
X90021185Y-78178571D02*
X89949757Y-78107143D01*
X89949757Y-78107143D02*
X89878328Y-77964285D01*
X91378328Y-75678572D02*
X90378328Y-75678572D01*
X90521185Y-75678572D02*
X90449757Y-75607143D01*
X90449757Y-75607143D02*
X90378328Y-75464286D01*
X90378328Y-75464286D02*
X90378328Y-75250000D01*
X90378328Y-75250000D02*
X90449757Y-75107143D01*
X90449757Y-75107143D02*
X90592614Y-75035715D01*
X90592614Y-75035715D02*
X91378328Y-75035715D01*
X90592614Y-75035715D02*
X90449757Y-74964286D01*
X90449757Y-74964286D02*
X90378328Y-74821429D01*
X90378328Y-74821429D02*
X90378328Y-74607143D01*
X90378328Y-74607143D02*
X90449757Y-74464286D01*
X90449757Y-74464286D02*
X90592614Y-74392857D01*
X90592614Y-74392857D02*
X91378328Y-74392857D01*
X91378328Y-73678572D02*
X90378328Y-73678572D01*
X90521185Y-73678572D02*
X90449757Y-73607143D01*
X90449757Y-73607143D02*
X90378328Y-73464286D01*
X90378328Y-73464286D02*
X90378328Y-73250000D01*
X90378328Y-73250000D02*
X90449757Y-73107143D01*
X90449757Y-73107143D02*
X90592614Y-73035715D01*
X90592614Y-73035715D02*
X91378328Y-73035715D01*
X90592614Y-73035715D02*
X90449757Y-72964286D01*
X90449757Y-72964286D02*
X90378328Y-72821429D01*
X90378328Y-72821429D02*
X90378328Y-72607143D01*
X90378328Y-72607143D02*
X90449757Y-72464286D01*
X90449757Y-72464286D02*
X90592614Y-72392857D01*
X90592614Y-72392857D02*
X91378328Y-72392857D01*
D12*
X87000000Y-110000000D02*
X93086420Y-110000000D01*
X87000000Y-48500000D02*
X93086420Y-48500000D01*
X92500000Y-110000000D02*
X92500000Y-48500000D01*
X92500000Y-110000000D02*
X92500000Y-48500000D01*
X92500000Y-110000000D02*
X91913579Y-108873496D01*
X92500000Y-110000000D02*
X93086421Y-108873496D01*
X92500000Y-48500000D02*
X93086421Y-49626504D01*
X92500000Y-48500000D02*
X91913579Y-49626504D01*
D10*
D11*
X59035716Y-114878327D02*
X59035716Y-115878327D01*
X58678573Y-114306899D02*
X58321430Y-115378327D01*
X58321430Y-115378327D02*
X59250001Y-115378327D01*
X59750001Y-114521184D02*
X59821429Y-114449756D01*
X59821429Y-114449756D02*
X59964287Y-114378327D01*
X59964287Y-114378327D02*
X60321429Y-114378327D01*
X60321429Y-114378327D02*
X60464287Y-114449756D01*
X60464287Y-114449756D02*
X60535715Y-114521184D01*
X60535715Y-114521184D02*
X60607144Y-114664041D01*
X60607144Y-114664041D02*
X60607144Y-114806899D01*
X60607144Y-114806899D02*
X60535715Y-115021184D01*
X60535715Y-115021184D02*
X59678572Y-115878327D01*
X59678572Y-115878327D02*
X60607144Y-115878327D01*
X61250000Y-115735470D02*
X61321429Y-115806899D01*
X61321429Y-115806899D02*
X61250000Y-115878327D01*
X61250000Y-115878327D02*
X61178572Y-115806899D01*
X61178572Y-115806899D02*
X61250000Y-115735470D01*
X61250000Y-115735470D02*
X61250000Y-115878327D01*
X62678572Y-114378327D02*
X61964286Y-114378327D01*
X61964286Y-114378327D02*
X61892858Y-115092613D01*
X61892858Y-115092613D02*
X61964286Y-115021184D01*
X61964286Y-115021184D02*
X62107144Y-114949756D01*
X62107144Y-114949756D02*
X62464286Y-114949756D01*
X62464286Y-114949756D02*
X62607144Y-115021184D01*
X62607144Y-115021184D02*
X62678572Y-115092613D01*
X62678572Y-115092613D02*
X62750001Y-115235470D01*
X62750001Y-115235470D02*
X62750001Y-115592613D01*
X62750001Y-115592613D02*
X62678572Y-115735470D01*
X62678572Y-115735470D02*
X62607144Y-115806899D01*
X62607144Y-115806899D02*
X62464286Y-115878327D01*
X62464286Y-115878327D02*
X62107144Y-115878327D01*
X62107144Y-115878327D02*
X61964286Y-115806899D01*
X61964286Y-115806899D02*
X61892858Y-115735470D01*
X63678572Y-114378327D02*
X63821429Y-114378327D01*
X63821429Y-114378327D02*
X63964286Y-114449756D01*
X63964286Y-114449756D02*
X64035715Y-114521184D01*
X64035715Y-114521184D02*
X64107143Y-114664041D01*
X64107143Y-114664041D02*
X64178572Y-114949756D01*
X64178572Y-114949756D02*
X64178572Y-115306899D01*
X64178572Y-115306899D02*
X64107143Y-115592613D01*
X64107143Y-115592613D02*
X64035715Y-115735470D01*
X64035715Y-115735470D02*
X63964286Y-115806899D01*
X63964286Y-115806899D02*
X63821429Y-115878327D01*
X63821429Y-115878327D02*
X63678572Y-115878327D01*
X63678572Y-115878327D02*
X63535715Y-115806899D01*
X63535715Y-115806899D02*
X63464286Y-115735470D01*
X63464286Y-115735470D02*
X63392857Y-115592613D01*
X63392857Y-115592613D02*
X63321429Y-115306899D01*
X63321429Y-115306899D02*
X63321429Y-114949756D01*
X63321429Y-114949756D02*
X63392857Y-114664041D01*
X63392857Y-114664041D02*
X63464286Y-114521184D01*
X63464286Y-114521184D02*
X63535715Y-114449756D01*
X63535715Y-114449756D02*
X63678572Y-114378327D01*
X65107143Y-114378327D02*
X65250000Y-114378327D01*
X65250000Y-114378327D02*
X65392857Y-114449756D01*
X65392857Y-114449756D02*
X65464286Y-114521184D01*
X65464286Y-114521184D02*
X65535714Y-114664041D01*
X65535714Y-114664041D02*
X65607143Y-114949756D01*
X65607143Y-114949756D02*
X65607143Y-115306899D01*
X65607143Y-115306899D02*
X65535714Y-115592613D01*
X65535714Y-115592613D02*
X65464286Y-115735470D01*
X65464286Y-115735470D02*
X65392857Y-115806899D01*
X65392857Y-115806899D02*
X65250000Y-115878327D01*
X65250000Y-115878327D02*
X65107143Y-115878327D01*
X65107143Y-115878327D02*
X64964286Y-115806899D01*
X64964286Y-115806899D02*
X64892857Y-115735470D01*
X64892857Y-115735470D02*
X64821428Y-115592613D01*
X64821428Y-115592613D02*
X64750000Y-115306899D01*
X64750000Y-115306899D02*
X64750000Y-114949756D01*
X64750000Y-114949756D02*
X64821428Y-114664041D01*
X64821428Y-114664041D02*
X64892857Y-114521184D01*
X64892857Y-114521184D02*
X64964286Y-114449756D01*
X64964286Y-114449756D02*
X65107143Y-114378327D01*
X66535714Y-114378327D02*
X66678571Y-114378327D01*
X66678571Y-114378327D02*
X66821428Y-114449756D01*
X66821428Y-114449756D02*
X66892857Y-114521184D01*
X66892857Y-114521184D02*
X66964285Y-114664041D01*
X66964285Y-114664041D02*
X67035714Y-114949756D01*
X67035714Y-114949756D02*
X67035714Y-115306899D01*
X67035714Y-115306899D02*
X66964285Y-115592613D01*
X66964285Y-115592613D02*
X66892857Y-115735470D01*
X66892857Y-115735470D02*
X66821428Y-115806899D01*
X66821428Y-115806899D02*
X66678571Y-115878327D01*
X66678571Y-115878327D02*
X66535714Y-115878327D01*
X66535714Y-115878327D02*
X66392857Y-115806899D01*
X66392857Y-115806899D02*
X66321428Y-115735470D01*
X66321428Y-115735470D02*
X66249999Y-115592613D01*
X66249999Y-115592613D02*
X66178571Y-115306899D01*
X66178571Y-115306899D02*
X66178571Y-114949756D01*
X66178571Y-114949756D02*
X66249999Y-114664041D01*
X66249999Y-114664041D02*
X66321428Y-114521184D01*
X66321428Y-114521184D02*
X66392857Y-114449756D01*
X66392857Y-114449756D02*
X66535714Y-114378327D01*
X68821427Y-115878327D02*
X68821427Y-114878327D01*
X68821427Y-115021184D02*
X68892856Y-114949756D01*
X68892856Y-114949756D02*
X69035713Y-114878327D01*
X69035713Y-114878327D02*
X69249999Y-114878327D01*
X69249999Y-114878327D02*
X69392856Y-114949756D01*
X69392856Y-114949756D02*
X69464285Y-115092613D01*
X69464285Y-115092613D02*
X69464285Y-115878327D01*
X69464285Y-115092613D02*
X69535713Y-114949756D01*
X69535713Y-114949756D02*
X69678570Y-114878327D01*
X69678570Y-114878327D02*
X69892856Y-114878327D01*
X69892856Y-114878327D02*
X70035713Y-114949756D01*
X70035713Y-114949756D02*
X70107142Y-115092613D01*
X70107142Y-115092613D02*
X70107142Y-115878327D01*
X70821427Y-115878327D02*
X70821427Y-114878327D01*
X70821427Y-115021184D02*
X70892856Y-114949756D01*
X70892856Y-114949756D02*
X71035713Y-114878327D01*
X71035713Y-114878327D02*
X71249999Y-114878327D01*
X71249999Y-114878327D02*
X71392856Y-114949756D01*
X71392856Y-114949756D02*
X71464285Y-115092613D01*
X71464285Y-115092613D02*
X71464285Y-115878327D01*
X71464285Y-115092613D02*
X71535713Y-114949756D01*
X71535713Y-114949756D02*
X71678570Y-114878327D01*
X71678570Y-114878327D02*
X71892856Y-114878327D01*
X71892856Y-114878327D02*
X72035713Y-114949756D01*
X72035713Y-114949756D02*
X72107142Y-115092613D01*
X72107142Y-115092613D02*
X72107142Y-115878327D01*
D12*
X44000000Y-110500000D02*
X44000000Y-117586419D01*
X86500000Y-110500000D02*
X86500000Y-117586419D01*
X44000000Y-116999999D02*
X86500000Y-116999999D01*
X44000000Y-116999999D02*
X86500000Y-116999999D01*
X44000000Y-116999999D02*
X45126504Y-116413578D01*
X44000000Y-116999999D02*
X45126504Y-117586420D01*
X86500000Y-116999999D02*
X85373496Y-117586420D01*
X86500000Y-116999999D02*
X85373496Y-116413578D01*
D13*
%TA.AperFunction,EtchedComponent*%
%TO.C,JP1*%
G36*
X60800000Y-93100000D02*
G01*
X60400000Y-93100000D01*
X60400000Y-92600000D01*
X60800000Y-92600000D01*
X60800000Y-93100000D01*
G37*
%TD.AperFunction*%
%TA.AperFunction,EtchedComponent*%
G36*
X61600000Y-93100000D02*
G01*
X61200000Y-93100000D01*
X61200000Y-92600000D01*
X61600000Y-92600000D01*
X61600000Y-93100000D01*
G37*
%TD.AperFunction*%
%TD*%
D14*
%TO.P,D1,1,K*%
%TO.N,+5V*%
X55500000Y-63540000D03*
D15*
%TO.P,D1,2,A*%
%TO.N,Net-(D1-A)*%
X55500000Y-61000000D03*
%TD*%
D16*
%TO.P,J3,1,Pin_1*%
%TO.N,+5V*%
X75210000Y-58025000D03*
D17*
%TO.P,J3,2,Pin_2*%
%TO.N,MISO*%
X77750000Y-58025000D03*
%TO.P,J3,3,Pin_3*%
%TO.N,MOSI*%
X75210000Y-55485000D03*
%TO.P,J3,4,Pin_4*%
%TO.N,SCK*%
X77750000Y-55485000D03*
%TO.P,J3,5,Pin_5*%
%TO.N,GND*%
X75210000Y-52945000D03*
%TO.P,J3,6,Pin_6*%
%TO.N,RESET*%
X77750000Y-52945000D03*
%TD*%
D18*
%TO.P,R1,1*%
%TO.N,RESET*%
X55500000Y-55450000D03*
%TO.P,R1,2*%
%TO.N,Net-(D1-A)*%
X55500000Y-58375000D03*
%TD*%
D19*
%TO.P,C3,1*%
%TO.N,Net-(U2-XTAL1{slash}PB6)*%
X57000000Y-73750000D03*
%TO.P,C3,2*%
%TO.N,GND*%
X57000000Y-72200000D03*
%TD*%
D20*
%TO.P,C2,1*%
%TO.N,+5V*%
X70000000Y-72000000D03*
%TO.P,C2,2*%
%TO.N,GND*%
X71550000Y-72000000D03*
%TD*%
D16*
%TO.P,J2,1,Pin_1*%
%TO.N,+5V*%
X50500000Y-75500000D03*
D17*
%TO.P,J2,2,Pin_2*%
%TO.N,GND*%
X50500000Y-72960000D03*
%TO.P,J2,3,Pin_3*%
%TO.N,SCL*%
X50500000Y-70420000D03*
%TO.P,J2,4,Pin_4*%
%TO.N,SDA*%
X50500000Y-67880000D03*
%TD*%
D19*
%TO.P,C4,1*%
%TO.N,Net-(U2-XTAL2{slash}PB7)*%
X54500000Y-73750000D03*
%TO.P,C4,2*%
%TO.N,GND*%
X54500000Y-72200000D03*
%TD*%
D16*
%TO.P,J1,1,Pin_1*%
%TO.N,GND*%
X66025000Y-97625000D03*
D17*
%TO.P,J1,2,Pin_2*%
%TO.N,+5V*%
X63485000Y-97625000D03*
%TO.P,J1,3,Pin_3*%
%TO.N,Net-(J1-Pin_3)*%
X60945000Y-97625000D03*
%TD*%
D21*
%TO.P,U2,1,~{RESET}/PC6*%
%TO.N,RESET*%
X59880000Y-54960000D03*
D22*
%TO.P,U2,2,PD0*%
%TO.N,unconnected-(U2-PD0-Pad2)*%
X59880000Y-57500000D03*
%TO.P,U2,3,PD1*%
%TO.N,unconnected-(U2-PD1-Pad3)*%
X59880000Y-60040000D03*
%TO.P,U2,4,PD2*%
%TO.N,unconnected-(U2-PD2-Pad4)*%
X59880000Y-62580000D03*
%TO.P,U2,5,PD3*%
%TO.N,unconnected-(U2-PD3-Pad5)*%
X59880000Y-65120000D03*
%TO.P,U2,6,PD4*%
%TO.N,unconnected-(U2-PD4-Pad6)*%
X59880000Y-67660000D03*
%TO.P,U2,7,VCC*%
%TO.N,+5V*%
X59880000Y-70200000D03*
%TO.P,U2,8,GND*%
%TO.N,GND*%
X59880000Y-72740000D03*
%TO.P,U2,9,XTAL1/PB6*%
%TO.N,Net-(U2-XTAL1{slash}PB6)*%
X59880000Y-75280000D03*
%TO.P,U2,10,XTAL2/PB7*%
%TO.N,Net-(U2-XTAL2{slash}PB7)*%
X59880000Y-77820000D03*
%TO.P,U2,11,PD5*%
%TO.N,unconnected-(U2-PD5-Pad11)*%
X59880000Y-80360000D03*
%TO.P,U2,12,PD6*%
%TO.N,unconnected-(U2-PD6-Pad12)*%
X59880000Y-82900000D03*
%TO.P,U2,13,PD7*%
%TO.N,unconnected-(U2-PD7-Pad13)*%
X59880000Y-85440000D03*
%TO.P,U2,14,PB0*%
%TO.N,Net-(JP1-A)*%
X59880000Y-87980000D03*
%TO.P,U2,15,PB1*%
%TO.N,unconnected-(U2-PB1-Pad15)*%
X67500000Y-87980000D03*
%TO.P,U2,16,PB2*%
%TO.N,unconnected-(U2-PB2-Pad16)*%
X67500000Y-85440000D03*
%TO.P,U2,17,PB3*%
%TO.N,MOSI*%
X67500000Y-82900000D03*
%TO.P,U2,18,PB4*%
%TO.N,MISO*%
X67500000Y-80360000D03*
%TO.P,U2,19,PB5*%
%TO.N,SCK*%
X67500000Y-77820000D03*
%TO.P,U2,20,AVCC*%
%TO.N,+5V*%
X67500000Y-75280000D03*
%TO.P,U2,21,AREF*%
%TO.N,unconnected-(U2-AREF-Pad21)*%
X67500000Y-72740000D03*
%TO.P,U2,22,GND*%
%TO.N,GND*%
X67500000Y-70200000D03*
%TO.P,U2,23,PC0*%
%TO.N,unconnected-(U2-PC0-Pad23)*%
X67500000Y-67660000D03*
%TO.P,U2,24,PC1*%
%TO.N,unconnected-(U2-PC1-Pad24)*%
X67500000Y-65120000D03*
%TO.P,U2,25,PC2*%
%TO.N,unconnected-(U2-PC2-Pad25)*%
X67500000Y-62580000D03*
%TO.P,U2,26,PC3*%
%TO.N,unconnected-(U2-PC3-Pad26)*%
X67500000Y-60040000D03*
%TO.P,U2,27,PC4*%
%TO.N,SDA*%
X67500000Y-57500000D03*
%TO.P,U2,28,PC5*%
%TO.N,SCL*%
X67500000Y-54960000D03*
%TD*%
D23*
%TO.P,Y2,1,1*%
%TO.N,Net-(U2-XTAL2{slash}PB7)*%
X54500000Y-76500000D03*
%TO.P,Y2,2,2*%
%TO.N,Net-(U2-XTAL1{slash}PB6)*%
X56400000Y-76500000D03*
%TD*%
D16*
%TO.P,TP1,1,1*%
%TO.N,GND*%
X82000000Y-106000000D03*
%TD*%
D24*
%TO.P,JP1,1,A*%
%TO.N,Net-(JP1-A)*%
X61000000Y-92200000D03*
%TO.P,JP1,2,B*%
%TO.N,Net-(J1-Pin_3)*%
X61000000Y-93500000D03*
%TD*%
D20*
%TO.P,C1,1*%
%TO.N,+5V*%
X70000000Y-70500000D03*
%TO.P,C1,2*%
%TO.N,GND*%
X71550000Y-70500000D03*
%TD*%
D25*
%TO.N,GND*%
X73500000Y-70500000D03*
X53500000Y-72000000D03*
%TO.N,MOSI*%
X80000000Y-62000000D03*
X72000000Y-61500000D03*
%TD*%
D26*
%TO.N,+5V*%
X55500000Y-63540000D02*
X50460000Y-63540000D01*
X67500000Y-75280000D02*
X70000000Y-72780000D01*
X70000000Y-72000000D02*
X70000000Y-70500000D01*
X48070000Y-71570000D02*
X51430000Y-71570000D01*
X48000000Y-66000000D02*
X48000000Y-71500000D01*
X53800000Y-70200000D02*
X59880000Y-70200000D01*
X67500000Y-75280000D02*
X64960000Y-75280000D01*
X70000000Y-72780000D02*
X70000000Y-72000000D01*
X52500000Y-73500000D02*
X52500000Y-71500000D01*
X50500000Y-75500000D02*
X52500000Y-73500000D01*
X48000000Y-71500000D02*
X48070000Y-71570000D01*
X64960000Y-75280000D02*
X59880000Y-70200000D01*
X52500000Y-71500000D02*
X53800000Y-70200000D01*
X59180000Y-69500000D02*
X59880000Y-70200000D01*
X75210000Y-58025000D02*
X75210000Y-65290000D01*
X63485000Y-97625000D02*
X63485000Y-79295000D01*
X50460000Y-63540000D02*
X48000000Y-66000000D01*
X53500000Y-69500000D02*
X59180000Y-69500000D01*
X51430000Y-71570000D02*
X53500000Y-69500000D01*
X59880000Y-70200000D02*
X59340000Y-69660000D01*
X75210000Y-65290000D02*
X70000000Y-70500000D01*
X63485000Y-79295000D02*
X67500000Y-75280000D01*
%TO.N,GND*%
X57540000Y-72740000D02*
X57000000Y-72200000D01*
X53700000Y-72200000D02*
X53500000Y-72000000D01*
X59880000Y-72740000D02*
X57540000Y-72740000D01*
X82000000Y-106000000D02*
X73625000Y-97625000D01*
X54500000Y-72200000D02*
X53700000Y-72200000D01*
X71550000Y-72000000D02*
X71550000Y-70500000D01*
X71550000Y-70500000D02*
X73500000Y-70500000D01*
X57000000Y-72200000D02*
X54500000Y-72200000D01*
X73625000Y-97625000D02*
X66025000Y-97625000D01*
%TO.N,Net-(U2-XTAL1{slash}PB6)*%
X57000000Y-75900000D02*
X56400000Y-76500000D01*
X57000000Y-73750000D02*
X57000000Y-75900000D01*
X58660000Y-76500000D02*
X59880000Y-75280000D01*
X56400000Y-76500000D02*
X58660000Y-76500000D01*
%TO.N,Net-(U2-XTAL2{slash}PB7)*%
X55820000Y-77820000D02*
X54500000Y-76500000D01*
X59880000Y-77820000D02*
X55820000Y-77820000D01*
X54500000Y-73750000D02*
X54500000Y-76500000D01*
%TO.N,SCK*%
X67500000Y-77820000D02*
X73180000Y-77820000D01*
X78900000Y-72100000D02*
X78900000Y-56635000D01*
X73180000Y-77820000D02*
X78900000Y-72100000D01*
X78900000Y-56635000D02*
X77750000Y-55485000D01*
%TO.N,MISO*%
X67120000Y-76380000D02*
X66400000Y-77100000D01*
X66400000Y-79260000D02*
X67500000Y-80360000D01*
X77750000Y-71250000D02*
X72620000Y-76380000D01*
X72620000Y-76380000D02*
X67120000Y-76380000D01*
X66400000Y-77100000D02*
X66400000Y-79260000D01*
X77750000Y-58025000D02*
X77750000Y-71250000D01*
%TO.N,RESET*%
X77750000Y-51250000D02*
X77750000Y-52945000D01*
X59880000Y-54960000D02*
X59880000Y-52620000D01*
X59390000Y-55450000D02*
X59880000Y-54960000D01*
X55500000Y-55450000D02*
X59390000Y-55450000D01*
X59880000Y-52620000D02*
X62000000Y-50500000D01*
X62000000Y-50500000D02*
X77000000Y-50500000D01*
X77000000Y-50500000D02*
X77750000Y-51250000D01*
%TO.N,MOSI*%
X80000000Y-62000000D02*
X80000000Y-73000000D01*
X67500000Y-82900000D02*
X70100000Y-82900000D01*
X72000000Y-58695000D02*
X72000000Y-61500000D01*
X75210000Y-55485000D02*
X72000000Y-58695000D01*
X70100000Y-82900000D02*
X80000000Y-73000000D01*
%TO.N,SDA*%
X66400000Y-60495635D02*
X60335635Y-66560000D01*
X60335635Y-66560000D02*
X51820000Y-66560000D01*
X67500000Y-57500000D02*
X66400000Y-58600000D01*
X51820000Y-66560000D02*
X50500000Y-67880000D01*
X66400000Y-58600000D02*
X66400000Y-60495635D01*
%TO.N,SCL*%
X51500000Y-65000000D02*
X58000000Y-65000000D01*
X50500000Y-70420000D02*
X49350000Y-69270000D01*
X64500000Y-60000000D02*
X64500000Y-56500000D01*
X49350000Y-69270000D02*
X49350000Y-67150000D01*
X64500000Y-56500000D02*
X66040000Y-54960000D01*
X60820000Y-63680000D02*
X64500000Y-60000000D01*
X58000000Y-65000000D02*
X59320000Y-63680000D01*
X59320000Y-63680000D02*
X60820000Y-63680000D01*
X49350000Y-67150000D02*
X51500000Y-65000000D01*
X66040000Y-54960000D02*
X67500000Y-54960000D01*
%TO.N,Net-(JP1-A)*%
X61000000Y-92200000D02*
X61000000Y-89100000D01*
X61000000Y-89100000D02*
X59880000Y-87980000D01*
%TO.N,Net-(D1-A)*%
X55500000Y-58375000D02*
X55500000Y-61000000D01*
%TO.N,Net-(J1-Pin_3)*%
X60945000Y-97625000D02*
X60945000Y-93555000D01*
X60945000Y-93555000D02*
X61000000Y-93500000D01*
%TD*%
M02*
