%TF.GenerationSoftware,KiCad,Pcbnew,8.0.4*%
%TF.CreationDate,2024-12-21T23:10:03-05:00*%
%TF.ProjectId,Reaction Wheel,52656163-7469-46f6-9e20-576865656c2e,rev?*%
%TF.SameCoordinates,Original*%
%TF.FileFunction,Soldermask,Bot*%
%TF.FilePolarity,Negative*%
%FSLAX46Y46*%
G04 Gerber Fmt 4.6, Leading zero omitted, Abs format (unit mm)*
G04 Created by KiCad (PCBNEW 8.0.4) date 2024-12-21 23:10:03*
%MOMM*%
%LPD*%
G01*
G04 APERTURE LIST*
%ADD10R,1.800000X1.800000*%
%ADD11C,1.800000*%
%ADD12R,1.700000X1.700000*%
%ADD13O,1.700000X1.700000*%
%ADD14R,1.600000X1.600000*%
%ADD15O,1.600000X1.600000*%
%ADD16C,1.000000*%
G04 APERTURE END LIST*
D10*
%TO.C,D1*%
X55500000Y-63540000D03*
D11*
X55500000Y-61000000D03*
%TD*%
D12*
%TO.C,J3*%
X75210000Y-58025000D03*
D13*
X77750000Y-58025000D03*
X75210000Y-55485000D03*
X77750000Y-55485000D03*
X75210000Y-52945000D03*
X77750000Y-52945000D03*
%TD*%
D12*
%TO.C,J2*%
X50500000Y-75500000D03*
D13*
X50500000Y-72960000D03*
X50500000Y-70420000D03*
X50500000Y-67880000D03*
%TD*%
D12*
%TO.C,J1*%
X66025000Y-97625000D03*
D13*
X63485000Y-97625000D03*
X60945000Y-97625000D03*
%TD*%
D14*
%TO.C,U2*%
X59880000Y-54960000D03*
D15*
X59880000Y-57500000D03*
X59880000Y-60040000D03*
X59880000Y-62580000D03*
X59880000Y-65120000D03*
X59880000Y-67660000D03*
X59880000Y-70200000D03*
X59880000Y-72740000D03*
X59880000Y-75280000D03*
X59880000Y-77820000D03*
X59880000Y-80360000D03*
X59880000Y-82900000D03*
X59880000Y-85440000D03*
X59880000Y-87980000D03*
X67500000Y-87980000D03*
X67500000Y-85440000D03*
X67500000Y-82900000D03*
X67500000Y-80360000D03*
X67500000Y-77820000D03*
X67500000Y-75280000D03*
X67500000Y-72740000D03*
X67500000Y-70200000D03*
X67500000Y-67660000D03*
X67500000Y-65120000D03*
X67500000Y-62580000D03*
X67500000Y-60040000D03*
X67500000Y-57500000D03*
X67500000Y-54960000D03*
%TD*%
D16*
%TO.C,Y2*%
X54500000Y-76500000D03*
X56400000Y-76500000D03*
%TD*%
D12*
%TO.C,TP1*%
X82000000Y-106000000D03*
%TD*%
M02*
