M48
; DRILL file {KiCad 8.0.4} date 2024-12-21T23:10:42-0500
; FORMAT={-:-/ absolute / metric / decimal}
; #@! TF.CreationDate,2024-12-21T23:10:42-05:00
; #@! TF.GenerationSoftware,Kicad,Pcbnew,8.0.4
; #@! TF.FileFunction,Plated,1,2,PTH
FMAT,2
METRIC
; #@! TA.AperFunction,Plated,PTH,ViaDrill
T1C0.300
; #@! TA.AperFunction,Plated,PTH,ComponentDrill
T2C0.500
; #@! TA.AperFunction,Plated,PTH,ComponentDrill
T3C0.800
; #@! TA.AperFunction,Plated,PTH,ComponentDrill
T4C0.900
; #@! TA.AperFunction,Plated,PTH,ComponentDrill
T5C1.000
%
G90
G05
T1
X53.5Y-72.0
X72.0Y-61.5
X73.5Y-70.5
X80.0Y-62.0
T2
X54.5Y-76.5
X56.4Y-76.5
T3
X59.88Y-54.96
X59.88Y-57.5
X59.88Y-60.04
X59.88Y-62.58
X59.88Y-65.12
X59.88Y-67.66
X59.88Y-70.2
X59.88Y-72.74
X59.88Y-75.28
X59.88Y-77.82
X59.88Y-80.36
X59.88Y-82.9
X59.88Y-85.44
X59.88Y-87.98
X67.5Y-54.96
X67.5Y-57.5
X67.5Y-60.04
X67.5Y-62.58
X67.5Y-65.12
X67.5Y-67.66
X67.5Y-70.2
X67.5Y-72.74
X67.5Y-75.28
X67.5Y-77.82
X67.5Y-80.36
X67.5Y-82.9
X67.5Y-85.44
X67.5Y-87.98
T4
X55.5Y-61.0
X55.5Y-63.54
T5
X50.5Y-67.88
X50.5Y-70.42
X50.5Y-72.96
X50.5Y-75.5
X60.945Y-97.625
X63.485Y-97.625
X66.025Y-97.625
X75.21Y-52.945
X75.21Y-55.485
X75.21Y-58.025
X77.75Y-52.945
X77.75Y-55.485
X77.75Y-58.025
X82.0Y-106.0
M30
