%TF.GenerationSoftware,KiCad,Pcbnew,8.0.4*%
%TF.CreationDate,2024-12-21T23:10:03-05:00*%
%TF.ProjectId,Reaction Wheel,52656163-7469-46f6-9e20-576865656c2e,rev?*%
%TF.SameCoordinates,Original*%
%TF.FileFunction,Legend,Top*%
%TF.FilePolarity,Positive*%
%FSLAX46Y46*%
G04 Gerber Fmt 4.6, Leading zero omitted, Abs format (unit mm)*
G04 Created by KiCad (PCBNEW 8.0.4) date 2024-12-21 23:10:03*
%MOMM*%
%LPD*%
G01*
G04 APERTURE LIST*
G04 Aperture macros list*
%AMRoundRect*
0 Rectangle with rounded corners*
0 $1 Rounding radius*
0 $2 $3 $4 $5 $6 $7 $8 $9 X,Y pos of 4 corners*
0 Add a 4 corners polygon primitive as box body*
4,1,4,$2,$3,$4,$5,$6,$7,$8,$9,$2,$3,0*
0 Add four circle primitives for the rounded corners*
1,1,$1+$1,$2,$3*
1,1,$1+$1,$4,$5*
1,1,$1+$1,$6,$7*
1,1,$1+$1,$8,$9*
0 Add four rect primitives between the rounded corners*
20,1,$1+$1,$2,$3,$4,$5,0*
20,1,$1+$1,$4,$5,$6,$7,0*
20,1,$1+$1,$6,$7,$8,$9,0*
20,1,$1+$1,$8,$9,$2,$3,0*%
G04 Aperture macros list end*
%ADD10C,0.100000*%
%ADD11C,0.150000*%
%ADD12C,0.125000*%
%ADD13C,0.120000*%
%ADD14R,1.800000X1.800000*%
%ADD15C,1.800000*%
%ADD16R,1.700000X1.700000*%
%ADD17O,1.700000X1.700000*%
%ADD18RoundRect,0.250000X-0.625000X0.312500X-0.625000X-0.312500X0.625000X-0.312500X0.625000X0.312500X0*%
%ADD19RoundRect,0.225000X0.250000X-0.225000X0.250000X0.225000X-0.250000X0.225000X-0.250000X-0.225000X0*%
%ADD20RoundRect,0.225000X-0.225000X-0.250000X0.225000X-0.250000X0.225000X0.250000X-0.225000X0.250000X0*%
%ADD21R,1.600000X1.600000*%
%ADD22O,1.600000X1.600000*%
%ADD23C,1.000000*%
%ADD24R,1.500000X1.000000*%
G04 APERTURE END LIST*
D10*
X46327693Y-72420038D02*
X46232455Y-72372419D01*
X46232455Y-72372419D02*
X46089598Y-72372419D01*
X46089598Y-72372419D02*
X45946741Y-72420038D01*
X45946741Y-72420038D02*
X45851503Y-72515276D01*
X45851503Y-72515276D02*
X45803884Y-72610514D01*
X45803884Y-72610514D02*
X45756265Y-72800990D01*
X45756265Y-72800990D02*
X45756265Y-72943847D01*
X45756265Y-72943847D02*
X45803884Y-73134323D01*
X45803884Y-73134323D02*
X45851503Y-73229561D01*
X45851503Y-73229561D02*
X45946741Y-73324800D01*
X45946741Y-73324800D02*
X46089598Y-73372419D01*
X46089598Y-73372419D02*
X46184836Y-73372419D01*
X46184836Y-73372419D02*
X46327693Y-73324800D01*
X46327693Y-73324800D02*
X46375312Y-73277180D01*
X46375312Y-73277180D02*
X46375312Y-72943847D01*
X46375312Y-72943847D02*
X46184836Y-72943847D01*
X46803884Y-73372419D02*
X46803884Y-72372419D01*
X46803884Y-72372419D02*
X47375312Y-73372419D01*
X47375312Y-73372419D02*
X47375312Y-72372419D01*
X47851503Y-73372419D02*
X47851503Y-72372419D01*
X47851503Y-72372419D02*
X48089598Y-72372419D01*
X48089598Y-72372419D02*
X48232455Y-72420038D01*
X48232455Y-72420038D02*
X48327693Y-72515276D01*
X48327693Y-72515276D02*
X48375312Y-72610514D01*
X48375312Y-72610514D02*
X48422931Y-72800990D01*
X48422931Y-72800990D02*
X48422931Y-72943847D01*
X48422931Y-72943847D02*
X48375312Y-73134323D01*
X48375312Y-73134323D02*
X48327693Y-73229561D01*
X48327693Y-73229561D02*
X48232455Y-73324800D01*
X48232455Y-73324800D02*
X48089598Y-73372419D01*
X48089598Y-73372419D02*
X47851503Y-73372419D01*
X80875312Y-53372419D02*
X80541979Y-52896228D01*
X80303884Y-53372419D02*
X80303884Y-52372419D01*
X80303884Y-52372419D02*
X80684836Y-52372419D01*
X80684836Y-52372419D02*
X80780074Y-52420038D01*
X80780074Y-52420038D02*
X80827693Y-52467657D01*
X80827693Y-52467657D02*
X80875312Y-52562895D01*
X80875312Y-52562895D02*
X80875312Y-52705752D01*
X80875312Y-52705752D02*
X80827693Y-52800990D01*
X80827693Y-52800990D02*
X80780074Y-52848609D01*
X80780074Y-52848609D02*
X80684836Y-52896228D01*
X80684836Y-52896228D02*
X80303884Y-52896228D01*
X81303884Y-52848609D02*
X81637217Y-52848609D01*
X81780074Y-53372419D02*
X81303884Y-53372419D01*
X81303884Y-53372419D02*
X81303884Y-52372419D01*
X81303884Y-52372419D02*
X81780074Y-52372419D01*
X82161027Y-53324800D02*
X82303884Y-53372419D01*
X82303884Y-53372419D02*
X82541979Y-53372419D01*
X82541979Y-53372419D02*
X82637217Y-53324800D01*
X82637217Y-53324800D02*
X82684836Y-53277180D01*
X82684836Y-53277180D02*
X82732455Y-53181942D01*
X82732455Y-53181942D02*
X82732455Y-53086704D01*
X82732455Y-53086704D02*
X82684836Y-52991466D01*
X82684836Y-52991466D02*
X82637217Y-52943847D01*
X82637217Y-52943847D02*
X82541979Y-52896228D01*
X82541979Y-52896228D02*
X82351503Y-52848609D01*
X82351503Y-52848609D02*
X82256265Y-52800990D01*
X82256265Y-52800990D02*
X82208646Y-52753371D01*
X82208646Y-52753371D02*
X82161027Y-52658133D01*
X82161027Y-52658133D02*
X82161027Y-52562895D01*
X82161027Y-52562895D02*
X82208646Y-52467657D01*
X82208646Y-52467657D02*
X82256265Y-52420038D01*
X82256265Y-52420038D02*
X82351503Y-52372419D01*
X82351503Y-52372419D02*
X82589598Y-52372419D01*
X82589598Y-52372419D02*
X82732455Y-52420038D01*
X83161027Y-52848609D02*
X83494360Y-52848609D01*
X83637217Y-53372419D02*
X83161027Y-53372419D01*
X83161027Y-53372419D02*
X83161027Y-52372419D01*
X83161027Y-52372419D02*
X83637217Y-52372419D01*
X83922932Y-52372419D02*
X84494360Y-52372419D01*
X84208646Y-53372419D02*
X84208646Y-52372419D01*
X68738665Y-108196115D02*
X68738665Y-107862782D01*
X69262475Y-107719925D02*
X69262475Y-108196115D01*
X69262475Y-108196115D02*
X68262475Y-108196115D01*
X68262475Y-108196115D02*
X68262475Y-107719925D01*
X69214856Y-107338972D02*
X69262475Y-107196115D01*
X69262475Y-107196115D02*
X69262475Y-106958020D01*
X69262475Y-106958020D02*
X69214856Y-106862782D01*
X69214856Y-106862782D02*
X69167236Y-106815163D01*
X69167236Y-106815163D02*
X69071998Y-106767544D01*
X69071998Y-106767544D02*
X68976760Y-106767544D01*
X68976760Y-106767544D02*
X68881522Y-106815163D01*
X68881522Y-106815163D02*
X68833903Y-106862782D01*
X68833903Y-106862782D02*
X68786284Y-106958020D01*
X68786284Y-106958020D02*
X68738665Y-107148496D01*
X68738665Y-107148496D02*
X68691046Y-107243734D01*
X68691046Y-107243734D02*
X68643427Y-107291353D01*
X68643427Y-107291353D02*
X68548189Y-107338972D01*
X68548189Y-107338972D02*
X68452951Y-107338972D01*
X68452951Y-107338972D02*
X68357713Y-107291353D01*
X68357713Y-107291353D02*
X68310094Y-107243734D01*
X68310094Y-107243734D02*
X68262475Y-107148496D01*
X68262475Y-107148496D02*
X68262475Y-106910401D01*
X68262475Y-106910401D02*
X68310094Y-106767544D01*
X68262475Y-106338972D02*
X69071998Y-106338972D01*
X69071998Y-106338972D02*
X69167236Y-106291353D01*
X69167236Y-106291353D02*
X69214856Y-106243734D01*
X69214856Y-106243734D02*
X69262475Y-106148496D01*
X69262475Y-106148496D02*
X69262475Y-105958020D01*
X69262475Y-105958020D02*
X69214856Y-105862782D01*
X69214856Y-105862782D02*
X69167236Y-105815163D01*
X69167236Y-105815163D02*
X69071998Y-105767544D01*
X69071998Y-105767544D02*
X68262475Y-105767544D01*
X70872419Y-108196115D02*
X69872419Y-108196115D01*
X69872419Y-108196115D02*
X69872419Y-107815163D01*
X69872419Y-107815163D02*
X69920038Y-107719925D01*
X69920038Y-107719925D02*
X69967657Y-107672306D01*
X69967657Y-107672306D02*
X70062895Y-107624687D01*
X70062895Y-107624687D02*
X70205752Y-107624687D01*
X70205752Y-107624687D02*
X70300990Y-107672306D01*
X70300990Y-107672306D02*
X70348609Y-107719925D01*
X70348609Y-107719925D02*
X70396228Y-107815163D01*
X70396228Y-107815163D02*
X70396228Y-108196115D01*
X69872419Y-107005639D02*
X69872419Y-106815163D01*
X69872419Y-106815163D02*
X69920038Y-106719925D01*
X69920038Y-106719925D02*
X70015276Y-106624687D01*
X70015276Y-106624687D02*
X70205752Y-106577068D01*
X70205752Y-106577068D02*
X70539085Y-106577068D01*
X70539085Y-106577068D02*
X70729561Y-106624687D01*
X70729561Y-106624687D02*
X70824800Y-106719925D01*
X70824800Y-106719925D02*
X70872419Y-106815163D01*
X70872419Y-106815163D02*
X70872419Y-107005639D01*
X70872419Y-107005639D02*
X70824800Y-107100877D01*
X70824800Y-107100877D02*
X70729561Y-107196115D01*
X70729561Y-107196115D02*
X70539085Y-107243734D01*
X70539085Y-107243734D02*
X70205752Y-107243734D01*
X70205752Y-107243734D02*
X70015276Y-107196115D01*
X70015276Y-107196115D02*
X69920038Y-107100877D01*
X69920038Y-107100877D02*
X69872419Y-107005639D01*
X70872419Y-105577068D02*
X70396228Y-105910401D01*
X70872419Y-106148496D02*
X69872419Y-106148496D01*
X69872419Y-106148496D02*
X69872419Y-105767544D01*
X69872419Y-105767544D02*
X69920038Y-105672306D01*
X69920038Y-105672306D02*
X69967657Y-105624687D01*
X69967657Y-105624687D02*
X70062895Y-105577068D01*
X70062895Y-105577068D02*
X70205752Y-105577068D01*
X70205752Y-105577068D02*
X70300990Y-105624687D01*
X70300990Y-105624687D02*
X70348609Y-105672306D01*
X70348609Y-105672306D02*
X70396228Y-105767544D01*
X70396228Y-105767544D02*
X70396228Y-106148496D01*
X69872419Y-105291353D02*
X69872419Y-104719925D01*
X70872419Y-105005639D02*
X69872419Y-105005639D01*
X50413295Y-54256265D02*
X50413295Y-54732455D01*
X50127580Y-54161027D02*
X51127580Y-54494360D01*
X51127580Y-54494360D02*
X50127580Y-54827693D01*
X50222819Y-55732455D02*
X50175200Y-55684836D01*
X50175200Y-55684836D02*
X50127580Y-55541979D01*
X50127580Y-55541979D02*
X50127580Y-55446741D01*
X50127580Y-55446741D02*
X50175200Y-55303884D01*
X50175200Y-55303884D02*
X50270438Y-55208646D01*
X50270438Y-55208646D02*
X50365676Y-55161027D01*
X50365676Y-55161027D02*
X50556152Y-55113408D01*
X50556152Y-55113408D02*
X50699009Y-55113408D01*
X50699009Y-55113408D02*
X50889485Y-55161027D01*
X50889485Y-55161027D02*
X50984723Y-55208646D01*
X50984723Y-55208646D02*
X51079961Y-55303884D01*
X51079961Y-55303884D02*
X51127580Y-55446741D01*
X51127580Y-55446741D02*
X51127580Y-55541979D01*
X51127580Y-55541979D02*
X51079961Y-55684836D01*
X51079961Y-55684836D02*
X51032342Y-55732455D01*
X50222819Y-56732455D02*
X50175200Y-56684836D01*
X50175200Y-56684836D02*
X50127580Y-56541979D01*
X50127580Y-56541979D02*
X50127580Y-56446741D01*
X50127580Y-56446741D02*
X50175200Y-56303884D01*
X50175200Y-56303884D02*
X50270438Y-56208646D01*
X50270438Y-56208646D02*
X50365676Y-56161027D01*
X50365676Y-56161027D02*
X50556152Y-56113408D01*
X50556152Y-56113408D02*
X50699009Y-56113408D01*
X50699009Y-56113408D02*
X50889485Y-56161027D01*
X50889485Y-56161027D02*
X50984723Y-56208646D01*
X50984723Y-56208646D02*
X51079961Y-56303884D01*
X51079961Y-56303884D02*
X51127580Y-56446741D01*
X51127580Y-56446741D02*
X51127580Y-56541979D01*
X51127580Y-56541979D02*
X51079961Y-56684836D01*
X51079961Y-56684836D02*
X51032342Y-56732455D01*
X50651390Y-57161027D02*
X50651390Y-57494360D01*
X50127580Y-57637217D02*
X50127580Y-57161027D01*
X50127580Y-57161027D02*
X51127580Y-57161027D01*
X51127580Y-57161027D02*
X51127580Y-57637217D01*
X50127580Y-58541979D02*
X50127580Y-58065789D01*
X50127580Y-58065789D02*
X51127580Y-58065789D01*
X50222819Y-60208646D02*
X50175200Y-60161027D01*
X50175200Y-60161027D02*
X50127580Y-60018170D01*
X50127580Y-60018170D02*
X50127580Y-59922932D01*
X50127580Y-59922932D02*
X50175200Y-59780075D01*
X50175200Y-59780075D02*
X50270438Y-59684837D01*
X50270438Y-59684837D02*
X50365676Y-59637218D01*
X50365676Y-59637218D02*
X50556152Y-59589599D01*
X50556152Y-59589599D02*
X50699009Y-59589599D01*
X50699009Y-59589599D02*
X50889485Y-59637218D01*
X50889485Y-59637218D02*
X50984723Y-59684837D01*
X50984723Y-59684837D02*
X51079961Y-59780075D01*
X51079961Y-59780075D02*
X51127580Y-59922932D01*
X51127580Y-59922932D02*
X51127580Y-60018170D01*
X51127580Y-60018170D02*
X51079961Y-60161027D01*
X51079961Y-60161027D02*
X51032342Y-60208646D01*
X50127580Y-60780075D02*
X50175200Y-60684837D01*
X50175200Y-60684837D02*
X50222819Y-60637218D01*
X50222819Y-60637218D02*
X50318057Y-60589599D01*
X50318057Y-60589599D02*
X50603771Y-60589599D01*
X50603771Y-60589599D02*
X50699009Y-60637218D01*
X50699009Y-60637218D02*
X50746628Y-60684837D01*
X50746628Y-60684837D02*
X50794247Y-60780075D01*
X50794247Y-60780075D02*
X50794247Y-60922932D01*
X50794247Y-60922932D02*
X50746628Y-61018170D01*
X50746628Y-61018170D02*
X50699009Y-61065789D01*
X50699009Y-61065789D02*
X50603771Y-61113408D01*
X50603771Y-61113408D02*
X50318057Y-61113408D01*
X50318057Y-61113408D02*
X50222819Y-61065789D01*
X50222819Y-61065789D02*
X50175200Y-61018170D01*
X50175200Y-61018170D02*
X50127580Y-60922932D01*
X50127580Y-60922932D02*
X50127580Y-60780075D01*
X50794247Y-61541980D02*
X50127580Y-61541980D01*
X50699009Y-61541980D02*
X50746628Y-61589599D01*
X50746628Y-61589599D02*
X50794247Y-61684837D01*
X50794247Y-61684837D02*
X50794247Y-61827694D01*
X50794247Y-61827694D02*
X50746628Y-61922932D01*
X50746628Y-61922932D02*
X50651390Y-61970551D01*
X50651390Y-61970551D02*
X50127580Y-61970551D01*
X50794247Y-62446742D02*
X50127580Y-62446742D01*
X50699009Y-62446742D02*
X50746628Y-62494361D01*
X50746628Y-62494361D02*
X50794247Y-62589599D01*
X50794247Y-62589599D02*
X50794247Y-62732456D01*
X50794247Y-62732456D02*
X50746628Y-62827694D01*
X50746628Y-62827694D02*
X50651390Y-62875313D01*
X50651390Y-62875313D02*
X50127580Y-62875313D01*
X50175200Y-63732456D02*
X50127580Y-63637218D01*
X50127580Y-63637218D02*
X50127580Y-63446742D01*
X50127580Y-63446742D02*
X50175200Y-63351504D01*
X50175200Y-63351504D02*
X50270438Y-63303885D01*
X50270438Y-63303885D02*
X50651390Y-63303885D01*
X50651390Y-63303885D02*
X50746628Y-63351504D01*
X50746628Y-63351504D02*
X50794247Y-63446742D01*
X50794247Y-63446742D02*
X50794247Y-63637218D01*
X50794247Y-63637218D02*
X50746628Y-63732456D01*
X50746628Y-63732456D02*
X50651390Y-63780075D01*
X50651390Y-63780075D02*
X50556152Y-63780075D01*
X50556152Y-63780075D02*
X50460914Y-63303885D01*
X50175200Y-64637218D02*
X50127580Y-64541980D01*
X50127580Y-64541980D02*
X50127580Y-64351504D01*
X50127580Y-64351504D02*
X50175200Y-64256266D01*
X50175200Y-64256266D02*
X50222819Y-64208647D01*
X50222819Y-64208647D02*
X50318057Y-64161028D01*
X50318057Y-64161028D02*
X50603771Y-64161028D01*
X50603771Y-64161028D02*
X50699009Y-64208647D01*
X50699009Y-64208647D02*
X50746628Y-64256266D01*
X50746628Y-64256266D02*
X50794247Y-64351504D01*
X50794247Y-64351504D02*
X50794247Y-64541980D01*
X50794247Y-64541980D02*
X50746628Y-64637218D01*
X50794247Y-64922933D02*
X50794247Y-65303885D01*
X51127580Y-65065790D02*
X50270438Y-65065790D01*
X50270438Y-65065790D02*
X50175200Y-65113409D01*
X50175200Y-65113409D02*
X50127580Y-65208647D01*
X50127580Y-65208647D02*
X50127580Y-65303885D01*
X70303884Y-57991466D02*
X71065789Y-57991466D01*
X70684836Y-58372419D02*
X70684836Y-57610514D01*
X72018169Y-57372419D02*
X71541979Y-57372419D01*
X71541979Y-57372419D02*
X71494360Y-57848609D01*
X71494360Y-57848609D02*
X71541979Y-57800990D01*
X71541979Y-57800990D02*
X71637217Y-57753371D01*
X71637217Y-57753371D02*
X71875312Y-57753371D01*
X71875312Y-57753371D02*
X71970550Y-57800990D01*
X71970550Y-57800990D02*
X72018169Y-57848609D01*
X72018169Y-57848609D02*
X72065788Y-57943847D01*
X72065788Y-57943847D02*
X72065788Y-58181942D01*
X72065788Y-58181942D02*
X72018169Y-58277180D01*
X72018169Y-58277180D02*
X71970550Y-58324800D01*
X71970550Y-58324800D02*
X71875312Y-58372419D01*
X71875312Y-58372419D02*
X71637217Y-58372419D01*
X71637217Y-58372419D02*
X71541979Y-58324800D01*
X71541979Y-58324800D02*
X71494360Y-58277180D01*
X72351503Y-57372419D02*
X72684836Y-58372419D01*
X72684836Y-58372419D02*
X73018169Y-57372419D01*
X62303884Y-95491466D02*
X63065789Y-95491466D01*
X62684836Y-95872419D02*
X62684836Y-95110514D01*
X64018169Y-94872419D02*
X63541979Y-94872419D01*
X63541979Y-94872419D02*
X63494360Y-95348609D01*
X63494360Y-95348609D02*
X63541979Y-95300990D01*
X63541979Y-95300990D02*
X63637217Y-95253371D01*
X63637217Y-95253371D02*
X63875312Y-95253371D01*
X63875312Y-95253371D02*
X63970550Y-95300990D01*
X63970550Y-95300990D02*
X64018169Y-95348609D01*
X64018169Y-95348609D02*
X64065788Y-95443847D01*
X64065788Y-95443847D02*
X64065788Y-95681942D01*
X64065788Y-95681942D02*
X64018169Y-95777180D01*
X64018169Y-95777180D02*
X63970550Y-95824800D01*
X63970550Y-95824800D02*
X63875312Y-95872419D01*
X63875312Y-95872419D02*
X63637217Y-95872419D01*
X63637217Y-95872419D02*
X63541979Y-95824800D01*
X63541979Y-95824800D02*
X63494360Y-95777180D01*
X64351503Y-94872419D02*
X64684836Y-95872419D01*
X64684836Y-95872419D02*
X65018169Y-94872419D01*
X45756265Y-68324800D02*
X45899122Y-68372419D01*
X45899122Y-68372419D02*
X46137217Y-68372419D01*
X46137217Y-68372419D02*
X46232455Y-68324800D01*
X46232455Y-68324800D02*
X46280074Y-68277180D01*
X46280074Y-68277180D02*
X46327693Y-68181942D01*
X46327693Y-68181942D02*
X46327693Y-68086704D01*
X46327693Y-68086704D02*
X46280074Y-67991466D01*
X46280074Y-67991466D02*
X46232455Y-67943847D01*
X46232455Y-67943847D02*
X46137217Y-67896228D01*
X46137217Y-67896228D02*
X45946741Y-67848609D01*
X45946741Y-67848609D02*
X45851503Y-67800990D01*
X45851503Y-67800990D02*
X45803884Y-67753371D01*
X45803884Y-67753371D02*
X45756265Y-67658133D01*
X45756265Y-67658133D02*
X45756265Y-67562895D01*
X45756265Y-67562895D02*
X45803884Y-67467657D01*
X45803884Y-67467657D02*
X45851503Y-67420038D01*
X45851503Y-67420038D02*
X45946741Y-67372419D01*
X45946741Y-67372419D02*
X46184836Y-67372419D01*
X46184836Y-67372419D02*
X46327693Y-67420038D01*
X46756265Y-68372419D02*
X46756265Y-67372419D01*
X46756265Y-67372419D02*
X46994360Y-67372419D01*
X46994360Y-67372419D02*
X47137217Y-67420038D01*
X47137217Y-67420038D02*
X47232455Y-67515276D01*
X47232455Y-67515276D02*
X47280074Y-67610514D01*
X47280074Y-67610514D02*
X47327693Y-67800990D01*
X47327693Y-67800990D02*
X47327693Y-67943847D01*
X47327693Y-67943847D02*
X47280074Y-68134323D01*
X47280074Y-68134323D02*
X47232455Y-68229561D01*
X47232455Y-68229561D02*
X47137217Y-68324800D01*
X47137217Y-68324800D02*
X46994360Y-68372419D01*
X46994360Y-68372419D02*
X46756265Y-68372419D01*
X47708646Y-68086704D02*
X48184836Y-68086704D01*
X47613408Y-68372419D02*
X47946741Y-67372419D01*
X47946741Y-67372419D02*
X48280074Y-68372419D01*
X58803884Y-95872419D02*
X58803884Y-94872419D01*
X58803884Y-94872419D02*
X59041979Y-94872419D01*
X59041979Y-94872419D02*
X59184836Y-94920038D01*
X59184836Y-94920038D02*
X59280074Y-95015276D01*
X59280074Y-95015276D02*
X59327693Y-95110514D01*
X59327693Y-95110514D02*
X59375312Y-95300990D01*
X59375312Y-95300990D02*
X59375312Y-95443847D01*
X59375312Y-95443847D02*
X59327693Y-95634323D01*
X59327693Y-95634323D02*
X59280074Y-95729561D01*
X59280074Y-95729561D02*
X59184836Y-95824800D01*
X59184836Y-95824800D02*
X59041979Y-95872419D01*
X59041979Y-95872419D02*
X58803884Y-95872419D01*
X60232455Y-95872419D02*
X60232455Y-95348609D01*
X60232455Y-95348609D02*
X60184836Y-95253371D01*
X60184836Y-95253371D02*
X60089598Y-95205752D01*
X60089598Y-95205752D02*
X59899122Y-95205752D01*
X59899122Y-95205752D02*
X59803884Y-95253371D01*
X60232455Y-95824800D02*
X60137217Y-95872419D01*
X60137217Y-95872419D02*
X59899122Y-95872419D01*
X59899122Y-95872419D02*
X59803884Y-95824800D01*
X59803884Y-95824800D02*
X59756265Y-95729561D01*
X59756265Y-95729561D02*
X59756265Y-95634323D01*
X59756265Y-95634323D02*
X59803884Y-95539085D01*
X59803884Y-95539085D02*
X59899122Y-95491466D01*
X59899122Y-95491466D02*
X60137217Y-95491466D01*
X60137217Y-95491466D02*
X60232455Y-95443847D01*
X60565789Y-95205752D02*
X60946741Y-95205752D01*
X60708646Y-94872419D02*
X60708646Y-95729561D01*
X60708646Y-95729561D02*
X60756265Y-95824800D01*
X60756265Y-95824800D02*
X60851503Y-95872419D01*
X60851503Y-95872419D02*
X60946741Y-95872419D01*
X61708646Y-95872419D02*
X61708646Y-95348609D01*
X61708646Y-95348609D02*
X61661027Y-95253371D01*
X61661027Y-95253371D02*
X61565789Y-95205752D01*
X61565789Y-95205752D02*
X61375313Y-95205752D01*
X61375313Y-95205752D02*
X61280075Y-95253371D01*
X61708646Y-95824800D02*
X61613408Y-95872419D01*
X61613408Y-95872419D02*
X61375313Y-95872419D01*
X61375313Y-95872419D02*
X61280075Y-95824800D01*
X61280075Y-95824800D02*
X61232456Y-95729561D01*
X61232456Y-95729561D02*
X61232456Y-95634323D01*
X61232456Y-95634323D02*
X61280075Y-95539085D01*
X61280075Y-95539085D02*
X61375313Y-95491466D01*
X61375313Y-95491466D02*
X61613408Y-95491466D01*
X61613408Y-95491466D02*
X61708646Y-95443847D01*
X80303884Y-58372419D02*
X80303884Y-57372419D01*
X80303884Y-57372419D02*
X80637217Y-58086704D01*
X80637217Y-58086704D02*
X80970550Y-57372419D01*
X80970550Y-57372419D02*
X80970550Y-58372419D01*
X81446741Y-58372419D02*
X81446741Y-57372419D01*
X81875312Y-58324800D02*
X82018169Y-58372419D01*
X82018169Y-58372419D02*
X82256264Y-58372419D01*
X82256264Y-58372419D02*
X82351502Y-58324800D01*
X82351502Y-58324800D02*
X82399121Y-58277180D01*
X82399121Y-58277180D02*
X82446740Y-58181942D01*
X82446740Y-58181942D02*
X82446740Y-58086704D01*
X82446740Y-58086704D02*
X82399121Y-57991466D01*
X82399121Y-57991466D02*
X82351502Y-57943847D01*
X82351502Y-57943847D02*
X82256264Y-57896228D01*
X82256264Y-57896228D02*
X82065788Y-57848609D01*
X82065788Y-57848609D02*
X81970550Y-57800990D01*
X81970550Y-57800990D02*
X81922931Y-57753371D01*
X81922931Y-57753371D02*
X81875312Y-57658133D01*
X81875312Y-57658133D02*
X81875312Y-57562895D01*
X81875312Y-57562895D02*
X81922931Y-57467657D01*
X81922931Y-57467657D02*
X81970550Y-57420038D01*
X81970550Y-57420038D02*
X82065788Y-57372419D01*
X82065788Y-57372419D02*
X82303883Y-57372419D01*
X82303883Y-57372419D02*
X82446740Y-57420038D01*
X83065788Y-57372419D02*
X83256264Y-57372419D01*
X83256264Y-57372419D02*
X83351502Y-57420038D01*
X83351502Y-57420038D02*
X83446740Y-57515276D01*
X83446740Y-57515276D02*
X83494359Y-57705752D01*
X83494359Y-57705752D02*
X83494359Y-58039085D01*
X83494359Y-58039085D02*
X83446740Y-58229561D01*
X83446740Y-58229561D02*
X83351502Y-58324800D01*
X83351502Y-58324800D02*
X83256264Y-58372419D01*
X83256264Y-58372419D02*
X83065788Y-58372419D01*
X83065788Y-58372419D02*
X82970550Y-58324800D01*
X82970550Y-58324800D02*
X82875312Y-58229561D01*
X82875312Y-58229561D02*
X82827693Y-58039085D01*
X82827693Y-58039085D02*
X82827693Y-57705752D01*
X82827693Y-57705752D02*
X82875312Y-57515276D01*
X82875312Y-57515276D02*
X82970550Y-57420038D01*
X82970550Y-57420038D02*
X83065788Y-57372419D01*
X45756265Y-70824800D02*
X45899122Y-70872419D01*
X45899122Y-70872419D02*
X46137217Y-70872419D01*
X46137217Y-70872419D02*
X46232455Y-70824800D01*
X46232455Y-70824800D02*
X46280074Y-70777180D01*
X46280074Y-70777180D02*
X46327693Y-70681942D01*
X46327693Y-70681942D02*
X46327693Y-70586704D01*
X46327693Y-70586704D02*
X46280074Y-70491466D01*
X46280074Y-70491466D02*
X46232455Y-70443847D01*
X46232455Y-70443847D02*
X46137217Y-70396228D01*
X46137217Y-70396228D02*
X45946741Y-70348609D01*
X45946741Y-70348609D02*
X45851503Y-70300990D01*
X45851503Y-70300990D02*
X45803884Y-70253371D01*
X45803884Y-70253371D02*
X45756265Y-70158133D01*
X45756265Y-70158133D02*
X45756265Y-70062895D01*
X45756265Y-70062895D02*
X45803884Y-69967657D01*
X45803884Y-69967657D02*
X45851503Y-69920038D01*
X45851503Y-69920038D02*
X45946741Y-69872419D01*
X45946741Y-69872419D02*
X46184836Y-69872419D01*
X46184836Y-69872419D02*
X46327693Y-69920038D01*
X47327693Y-70777180D02*
X47280074Y-70824800D01*
X47280074Y-70824800D02*
X47137217Y-70872419D01*
X47137217Y-70872419D02*
X47041979Y-70872419D01*
X47041979Y-70872419D02*
X46899122Y-70824800D01*
X46899122Y-70824800D02*
X46803884Y-70729561D01*
X46803884Y-70729561D02*
X46756265Y-70634323D01*
X46756265Y-70634323D02*
X46708646Y-70443847D01*
X46708646Y-70443847D02*
X46708646Y-70300990D01*
X46708646Y-70300990D02*
X46756265Y-70110514D01*
X46756265Y-70110514D02*
X46803884Y-70015276D01*
X46803884Y-70015276D02*
X46899122Y-69920038D01*
X46899122Y-69920038D02*
X47041979Y-69872419D01*
X47041979Y-69872419D02*
X47137217Y-69872419D01*
X47137217Y-69872419D02*
X47280074Y-69920038D01*
X47280074Y-69920038D02*
X47327693Y-69967657D01*
X48232455Y-70872419D02*
X47756265Y-70872419D01*
X47756265Y-70872419D02*
X47756265Y-69872419D01*
X45303884Y-75381522D02*
X46065789Y-75381522D01*
X45684836Y-75762475D02*
X45684836Y-75000570D01*
X47018169Y-74762475D02*
X46541979Y-74762475D01*
X46541979Y-74762475D02*
X46494360Y-75238665D01*
X46494360Y-75238665D02*
X46541979Y-75191046D01*
X46541979Y-75191046D02*
X46637217Y-75143427D01*
X46637217Y-75143427D02*
X46875312Y-75143427D01*
X46875312Y-75143427D02*
X46970550Y-75191046D01*
X46970550Y-75191046D02*
X47018169Y-75238665D01*
X47018169Y-75238665D02*
X47065788Y-75333903D01*
X47065788Y-75333903D02*
X47065788Y-75571998D01*
X47065788Y-75571998D02*
X47018169Y-75667236D01*
X47018169Y-75667236D02*
X46970550Y-75714856D01*
X46970550Y-75714856D02*
X46875312Y-75762475D01*
X46875312Y-75762475D02*
X46637217Y-75762475D01*
X46637217Y-75762475D02*
X46541979Y-75714856D01*
X46541979Y-75714856D02*
X46494360Y-75667236D01*
X47351503Y-74762475D02*
X47684836Y-75762475D01*
X47684836Y-75762475D02*
X48018169Y-74762475D01*
X80256265Y-55824800D02*
X80399122Y-55872419D01*
X80399122Y-55872419D02*
X80637217Y-55872419D01*
X80637217Y-55872419D02*
X80732455Y-55824800D01*
X80732455Y-55824800D02*
X80780074Y-55777180D01*
X80780074Y-55777180D02*
X80827693Y-55681942D01*
X80827693Y-55681942D02*
X80827693Y-55586704D01*
X80827693Y-55586704D02*
X80780074Y-55491466D01*
X80780074Y-55491466D02*
X80732455Y-55443847D01*
X80732455Y-55443847D02*
X80637217Y-55396228D01*
X80637217Y-55396228D02*
X80446741Y-55348609D01*
X80446741Y-55348609D02*
X80351503Y-55300990D01*
X80351503Y-55300990D02*
X80303884Y-55253371D01*
X80303884Y-55253371D02*
X80256265Y-55158133D01*
X80256265Y-55158133D02*
X80256265Y-55062895D01*
X80256265Y-55062895D02*
X80303884Y-54967657D01*
X80303884Y-54967657D02*
X80351503Y-54920038D01*
X80351503Y-54920038D02*
X80446741Y-54872419D01*
X80446741Y-54872419D02*
X80684836Y-54872419D01*
X80684836Y-54872419D02*
X80827693Y-54920038D01*
X81827693Y-55777180D02*
X81780074Y-55824800D01*
X81780074Y-55824800D02*
X81637217Y-55872419D01*
X81637217Y-55872419D02*
X81541979Y-55872419D01*
X81541979Y-55872419D02*
X81399122Y-55824800D01*
X81399122Y-55824800D02*
X81303884Y-55729561D01*
X81303884Y-55729561D02*
X81256265Y-55634323D01*
X81256265Y-55634323D02*
X81208646Y-55443847D01*
X81208646Y-55443847D02*
X81208646Y-55300990D01*
X81208646Y-55300990D02*
X81256265Y-55110514D01*
X81256265Y-55110514D02*
X81303884Y-55015276D01*
X81303884Y-55015276D02*
X81399122Y-54920038D01*
X81399122Y-54920038D02*
X81541979Y-54872419D01*
X81541979Y-54872419D02*
X81637217Y-54872419D01*
X81637217Y-54872419D02*
X81780074Y-54920038D01*
X81780074Y-54920038D02*
X81827693Y-54967657D01*
X82256265Y-55872419D02*
X82256265Y-54872419D01*
X82827693Y-55872419D02*
X82399122Y-55300990D01*
X82827693Y-54872419D02*
X82256265Y-55443847D01*
X66327693Y-94920038D02*
X66232455Y-94872419D01*
X66232455Y-94872419D02*
X66089598Y-94872419D01*
X66089598Y-94872419D02*
X65946741Y-94920038D01*
X65946741Y-94920038D02*
X65851503Y-95015276D01*
X65851503Y-95015276D02*
X65803884Y-95110514D01*
X65803884Y-95110514D02*
X65756265Y-95300990D01*
X65756265Y-95300990D02*
X65756265Y-95443847D01*
X65756265Y-95443847D02*
X65803884Y-95634323D01*
X65803884Y-95634323D02*
X65851503Y-95729561D01*
X65851503Y-95729561D02*
X65946741Y-95824800D01*
X65946741Y-95824800D02*
X66089598Y-95872419D01*
X66089598Y-95872419D02*
X66184836Y-95872419D01*
X66184836Y-95872419D02*
X66327693Y-95824800D01*
X66327693Y-95824800D02*
X66375312Y-95777180D01*
X66375312Y-95777180D02*
X66375312Y-95443847D01*
X66375312Y-95443847D02*
X66184836Y-95443847D01*
X66803884Y-95872419D02*
X66803884Y-94872419D01*
X66803884Y-94872419D02*
X67375312Y-95872419D01*
X67375312Y-95872419D02*
X67375312Y-94872419D01*
X67851503Y-95872419D02*
X67851503Y-94872419D01*
X67851503Y-94872419D02*
X68089598Y-94872419D01*
X68089598Y-94872419D02*
X68232455Y-94920038D01*
X68232455Y-94920038D02*
X68327693Y-95015276D01*
X68327693Y-95015276D02*
X68375312Y-95110514D01*
X68375312Y-95110514D02*
X68422931Y-95300990D01*
X68422931Y-95300990D02*
X68422931Y-95443847D01*
X68422931Y-95443847D02*
X68375312Y-95634323D01*
X68375312Y-95634323D02*
X68327693Y-95729561D01*
X68327693Y-95729561D02*
X68232455Y-95824800D01*
X68232455Y-95824800D02*
X68089598Y-95872419D01*
X68089598Y-95872419D02*
X67851503Y-95872419D01*
X69803884Y-55872419D02*
X69803884Y-54872419D01*
X69803884Y-54872419D02*
X70137217Y-55586704D01*
X70137217Y-55586704D02*
X70470550Y-54872419D01*
X70470550Y-54872419D02*
X70470550Y-55872419D01*
X71137217Y-54872419D02*
X71327693Y-54872419D01*
X71327693Y-54872419D02*
X71422931Y-54920038D01*
X71422931Y-54920038D02*
X71518169Y-55015276D01*
X71518169Y-55015276D02*
X71565788Y-55205752D01*
X71565788Y-55205752D02*
X71565788Y-55539085D01*
X71565788Y-55539085D02*
X71518169Y-55729561D01*
X71518169Y-55729561D02*
X71422931Y-55824800D01*
X71422931Y-55824800D02*
X71327693Y-55872419D01*
X71327693Y-55872419D02*
X71137217Y-55872419D01*
X71137217Y-55872419D02*
X71041979Y-55824800D01*
X71041979Y-55824800D02*
X70946741Y-55729561D01*
X70946741Y-55729561D02*
X70899122Y-55539085D01*
X70899122Y-55539085D02*
X70899122Y-55205752D01*
X70899122Y-55205752D02*
X70946741Y-55015276D01*
X70946741Y-55015276D02*
X71041979Y-54920038D01*
X71041979Y-54920038D02*
X71137217Y-54872419D01*
X71946741Y-55824800D02*
X72089598Y-55872419D01*
X72089598Y-55872419D02*
X72327693Y-55872419D01*
X72327693Y-55872419D02*
X72422931Y-55824800D01*
X72422931Y-55824800D02*
X72470550Y-55777180D01*
X72470550Y-55777180D02*
X72518169Y-55681942D01*
X72518169Y-55681942D02*
X72518169Y-55586704D01*
X72518169Y-55586704D02*
X72470550Y-55491466D01*
X72470550Y-55491466D02*
X72422931Y-55443847D01*
X72422931Y-55443847D02*
X72327693Y-55396228D01*
X72327693Y-55396228D02*
X72137217Y-55348609D01*
X72137217Y-55348609D02*
X72041979Y-55300990D01*
X72041979Y-55300990D02*
X71994360Y-55253371D01*
X71994360Y-55253371D02*
X71946741Y-55158133D01*
X71946741Y-55158133D02*
X71946741Y-55062895D01*
X71946741Y-55062895D02*
X71994360Y-54967657D01*
X71994360Y-54967657D02*
X72041979Y-54920038D01*
X72041979Y-54920038D02*
X72137217Y-54872419D01*
X72137217Y-54872419D02*
X72375312Y-54872419D01*
X72375312Y-54872419D02*
X72518169Y-54920038D01*
X72946741Y-55872419D02*
X72946741Y-54872419D01*
X70827693Y-52420038D02*
X70732455Y-52372419D01*
X70732455Y-52372419D02*
X70589598Y-52372419D01*
X70589598Y-52372419D02*
X70446741Y-52420038D01*
X70446741Y-52420038D02*
X70351503Y-52515276D01*
X70351503Y-52515276D02*
X70303884Y-52610514D01*
X70303884Y-52610514D02*
X70256265Y-52800990D01*
X70256265Y-52800990D02*
X70256265Y-52943847D01*
X70256265Y-52943847D02*
X70303884Y-53134323D01*
X70303884Y-53134323D02*
X70351503Y-53229561D01*
X70351503Y-53229561D02*
X70446741Y-53324800D01*
X70446741Y-53324800D02*
X70589598Y-53372419D01*
X70589598Y-53372419D02*
X70684836Y-53372419D01*
X70684836Y-53372419D02*
X70827693Y-53324800D01*
X70827693Y-53324800D02*
X70875312Y-53277180D01*
X70875312Y-53277180D02*
X70875312Y-52943847D01*
X70875312Y-52943847D02*
X70684836Y-52943847D01*
X71303884Y-53372419D02*
X71303884Y-52372419D01*
X71303884Y-52372419D02*
X71875312Y-53372419D01*
X71875312Y-53372419D02*
X71875312Y-52372419D01*
X72351503Y-53372419D02*
X72351503Y-52372419D01*
X72351503Y-52372419D02*
X72589598Y-52372419D01*
X72589598Y-52372419D02*
X72732455Y-52420038D01*
X72732455Y-52420038D02*
X72827693Y-52515276D01*
X72827693Y-52515276D02*
X72875312Y-52610514D01*
X72875312Y-52610514D02*
X72922931Y-52800990D01*
X72922931Y-52800990D02*
X72922931Y-52943847D01*
X72922931Y-52943847D02*
X72875312Y-53134323D01*
X72875312Y-53134323D02*
X72827693Y-53229561D01*
X72827693Y-53229561D02*
X72732455Y-53324800D01*
X72732455Y-53324800D02*
X72589598Y-53372419D01*
X72589598Y-53372419D02*
X72351503Y-53372419D01*
X81762782Y-50011552D02*
X82096115Y-50011552D01*
X82096115Y-49592504D02*
X82096115Y-50392504D01*
X82096115Y-50392504D02*
X81619925Y-50392504D01*
X81096115Y-49592504D02*
X81191353Y-49630600D01*
X81191353Y-49630600D02*
X81238972Y-49706790D01*
X81238972Y-49706790D02*
X81238972Y-50392504D01*
X80286591Y-49592504D02*
X80286591Y-50011552D01*
X80286591Y-50011552D02*
X80334210Y-50087742D01*
X80334210Y-50087742D02*
X80429448Y-50125838D01*
X80429448Y-50125838D02*
X80619924Y-50125838D01*
X80619924Y-50125838D02*
X80715162Y-50087742D01*
X80286591Y-49630600D02*
X80381829Y-49592504D01*
X80381829Y-49592504D02*
X80619924Y-49592504D01*
X80619924Y-49592504D02*
X80715162Y-49630600D01*
X80715162Y-49630600D02*
X80762781Y-49706790D01*
X80762781Y-49706790D02*
X80762781Y-49782980D01*
X80762781Y-49782980D02*
X80715162Y-49859171D01*
X80715162Y-49859171D02*
X80619924Y-49897266D01*
X80619924Y-49897266D02*
X80381829Y-49897266D01*
X80381829Y-49897266D02*
X80286591Y-49935361D01*
X79858019Y-49630600D02*
X79762781Y-49592504D01*
X79762781Y-49592504D02*
X79572305Y-49592504D01*
X79572305Y-49592504D02*
X79477067Y-49630600D01*
X79477067Y-49630600D02*
X79429448Y-49706790D01*
X79429448Y-49706790D02*
X79429448Y-49744885D01*
X79429448Y-49744885D02*
X79477067Y-49821076D01*
X79477067Y-49821076D02*
X79572305Y-49859171D01*
X79572305Y-49859171D02*
X79715162Y-49859171D01*
X79715162Y-49859171D02*
X79810400Y-49897266D01*
X79810400Y-49897266D02*
X79858019Y-49973457D01*
X79858019Y-49973457D02*
X79858019Y-50011552D01*
X79858019Y-50011552D02*
X79810400Y-50087742D01*
X79810400Y-50087742D02*
X79715162Y-50125838D01*
X79715162Y-50125838D02*
X79572305Y-50125838D01*
X79572305Y-50125838D02*
X79477067Y-50087742D01*
X79000876Y-49592504D02*
X79000876Y-50392504D01*
X78572305Y-49592504D02*
X78572305Y-50011552D01*
X78572305Y-50011552D02*
X78619924Y-50087742D01*
X78619924Y-50087742D02*
X78715162Y-50125838D01*
X78715162Y-50125838D02*
X78858019Y-50125838D01*
X78858019Y-50125838D02*
X78953257Y-50087742D01*
X78953257Y-50087742D02*
X79000876Y-50049647D01*
X78096114Y-49592504D02*
X78096114Y-50125838D01*
X78096114Y-50392504D02*
X78143733Y-50354409D01*
X78143733Y-50354409D02*
X78096114Y-50316314D01*
X78096114Y-50316314D02*
X78048495Y-50354409D01*
X78048495Y-50354409D02*
X78096114Y-50392504D01*
X78096114Y-50392504D02*
X78096114Y-50316314D01*
X77619924Y-50125838D02*
X77619924Y-49592504D01*
X77619924Y-50049647D02*
X77572305Y-50087742D01*
X77572305Y-50087742D02*
X77477067Y-50125838D01*
X77477067Y-50125838D02*
X77334210Y-50125838D01*
X77334210Y-50125838D02*
X77238972Y-50087742D01*
X77238972Y-50087742D02*
X77191353Y-50011552D01*
X77191353Y-50011552D02*
X77191353Y-49592504D01*
X76286591Y-50125838D02*
X76286591Y-49478219D01*
X76286591Y-49478219D02*
X76334210Y-49402028D01*
X76334210Y-49402028D02*
X76381829Y-49363933D01*
X76381829Y-49363933D02*
X76477067Y-49325838D01*
X76477067Y-49325838D02*
X76619924Y-49325838D01*
X76619924Y-49325838D02*
X76715162Y-49363933D01*
X76286591Y-49630600D02*
X76381829Y-49592504D01*
X76381829Y-49592504D02*
X76572305Y-49592504D01*
X76572305Y-49592504D02*
X76667543Y-49630600D01*
X76667543Y-49630600D02*
X76715162Y-49668695D01*
X76715162Y-49668695D02*
X76762781Y-49744885D01*
X76762781Y-49744885D02*
X76762781Y-49973457D01*
X76762781Y-49973457D02*
X76715162Y-50049647D01*
X76715162Y-50049647D02*
X76667543Y-50087742D01*
X76667543Y-50087742D02*
X76572305Y-50125838D01*
X76572305Y-50125838D02*
X76381829Y-50125838D01*
X76381829Y-50125838D02*
X76286591Y-50087742D01*
X75048495Y-49592504D02*
X75048495Y-50392504D01*
X75048495Y-50392504D02*
X74667543Y-50392504D01*
X74667543Y-50392504D02*
X74572305Y-50354409D01*
X74572305Y-50354409D02*
X74524686Y-50316314D01*
X74524686Y-50316314D02*
X74477067Y-50240123D01*
X74477067Y-50240123D02*
X74477067Y-50125838D01*
X74477067Y-50125838D02*
X74524686Y-50049647D01*
X74524686Y-50049647D02*
X74572305Y-50011552D01*
X74572305Y-50011552D02*
X74667543Y-49973457D01*
X74667543Y-49973457D02*
X75048495Y-49973457D01*
X73905638Y-49592504D02*
X74000876Y-49630600D01*
X74000876Y-49630600D02*
X74048495Y-49668695D01*
X74048495Y-49668695D02*
X74096114Y-49744885D01*
X74096114Y-49744885D02*
X74096114Y-49973457D01*
X74096114Y-49973457D02*
X74048495Y-50049647D01*
X74048495Y-50049647D02*
X74000876Y-50087742D01*
X74000876Y-50087742D02*
X73905638Y-50125838D01*
X73905638Y-50125838D02*
X73762781Y-50125838D01*
X73762781Y-50125838D02*
X73667543Y-50087742D01*
X73667543Y-50087742D02*
X73619924Y-50049647D01*
X73619924Y-50049647D02*
X73572305Y-49973457D01*
X73572305Y-49973457D02*
X73572305Y-49744885D01*
X73572305Y-49744885D02*
X73619924Y-49668695D01*
X73619924Y-49668695D02*
X73667543Y-49630600D01*
X73667543Y-49630600D02*
X73762781Y-49592504D01*
X73762781Y-49592504D02*
X73905638Y-49592504D01*
X73143733Y-49592504D02*
X73143733Y-50125838D01*
X73143733Y-49973457D02*
X73096114Y-50049647D01*
X73096114Y-50049647D02*
X73048495Y-50087742D01*
X73048495Y-50087742D02*
X72953257Y-50125838D01*
X72953257Y-50125838D02*
X72858019Y-50125838D01*
X72667542Y-50125838D02*
X72286590Y-50125838D01*
X72524685Y-50392504D02*
X72524685Y-49706790D01*
X72524685Y-49706790D02*
X72477066Y-49630600D01*
X72477066Y-49630600D02*
X72381828Y-49592504D01*
X72381828Y-49592504D02*
X72286590Y-49592504D01*
X70500000Y-51000000D02*
X83000000Y-51000000D01*
X83000000Y-51025400D01*
X70500000Y-51025400D01*
X70500000Y-51000000D01*
D11*
X52494819Y-63008094D02*
X51494819Y-63008094D01*
X51494819Y-63008094D02*
X51494819Y-62769999D01*
X51494819Y-62769999D02*
X51542438Y-62627142D01*
X51542438Y-62627142D02*
X51637676Y-62531904D01*
X51637676Y-62531904D02*
X51732914Y-62484285D01*
X51732914Y-62484285D02*
X51923390Y-62436666D01*
X51923390Y-62436666D02*
X52066247Y-62436666D01*
X52066247Y-62436666D02*
X52256723Y-62484285D01*
X52256723Y-62484285D02*
X52351961Y-62531904D01*
X52351961Y-62531904D02*
X52447200Y-62627142D01*
X52447200Y-62627142D02*
X52494819Y-62769999D01*
X52494819Y-62769999D02*
X52494819Y-63008094D01*
X52494819Y-61484285D02*
X52494819Y-62055713D01*
X52494819Y-61769999D02*
X51494819Y-61769999D01*
X51494819Y-61769999D02*
X51637676Y-61865237D01*
X51637676Y-61865237D02*
X51732914Y-61960475D01*
X51732914Y-61960475D02*
X51780533Y-62055713D01*
X57774819Y-57079166D02*
X57298628Y-57412499D01*
X57774819Y-57650594D02*
X56774819Y-57650594D01*
X56774819Y-57650594D02*
X56774819Y-57269642D01*
X56774819Y-57269642D02*
X56822438Y-57174404D01*
X56822438Y-57174404D02*
X56870057Y-57126785D01*
X56870057Y-57126785D02*
X56965295Y-57079166D01*
X56965295Y-57079166D02*
X57108152Y-57079166D01*
X57108152Y-57079166D02*
X57203390Y-57126785D01*
X57203390Y-57126785D02*
X57251009Y-57174404D01*
X57251009Y-57174404D02*
X57298628Y-57269642D01*
X57298628Y-57269642D02*
X57298628Y-57650594D01*
X57774819Y-56126785D02*
X57774819Y-56698213D01*
X57774819Y-56412499D02*
X56774819Y-56412499D01*
X56774819Y-56412499D02*
X56917676Y-56507737D01*
X56917676Y-56507737D02*
X57012914Y-56602975D01*
X57012914Y-56602975D02*
X57060533Y-56698213D01*
D12*
X55866667Y-75287404D02*
X55828571Y-75325500D01*
X55828571Y-75325500D02*
X55714286Y-75363595D01*
X55714286Y-75363595D02*
X55638095Y-75363595D01*
X55638095Y-75363595D02*
X55523809Y-75325500D01*
X55523809Y-75325500D02*
X55447619Y-75249309D01*
X55447619Y-75249309D02*
X55409524Y-75173119D01*
X55409524Y-75173119D02*
X55371428Y-75020738D01*
X55371428Y-75020738D02*
X55371428Y-74906452D01*
X55371428Y-74906452D02*
X55409524Y-74754071D01*
X55409524Y-74754071D02*
X55447619Y-74677880D01*
X55447619Y-74677880D02*
X55523809Y-74601690D01*
X55523809Y-74601690D02*
X55638095Y-74563595D01*
X55638095Y-74563595D02*
X55714286Y-74563595D01*
X55714286Y-74563595D02*
X55828571Y-74601690D01*
X55828571Y-74601690D02*
X55866667Y-74639785D01*
X56133333Y-74563595D02*
X56628571Y-74563595D01*
X56628571Y-74563595D02*
X56361905Y-74868357D01*
X56361905Y-74868357D02*
X56476190Y-74868357D01*
X56476190Y-74868357D02*
X56552381Y-74906452D01*
X56552381Y-74906452D02*
X56590476Y-74944547D01*
X56590476Y-74944547D02*
X56628571Y-75020738D01*
X56628571Y-75020738D02*
X56628571Y-75211214D01*
X56628571Y-75211214D02*
X56590476Y-75287404D01*
X56590476Y-75287404D02*
X56552381Y-75325500D01*
X56552381Y-75325500D02*
X56476190Y-75363595D01*
X56476190Y-75363595D02*
X56247619Y-75363595D01*
X56247619Y-75363595D02*
X56171428Y-75325500D01*
X56171428Y-75325500D02*
X56133333Y-75287404D01*
D11*
X70608333Y-73859580D02*
X70560714Y-73907200D01*
X70560714Y-73907200D02*
X70417857Y-73954819D01*
X70417857Y-73954819D02*
X70322619Y-73954819D01*
X70322619Y-73954819D02*
X70179762Y-73907200D01*
X70179762Y-73907200D02*
X70084524Y-73811961D01*
X70084524Y-73811961D02*
X70036905Y-73716723D01*
X70036905Y-73716723D02*
X69989286Y-73526247D01*
X69989286Y-73526247D02*
X69989286Y-73383390D01*
X69989286Y-73383390D02*
X70036905Y-73192914D01*
X70036905Y-73192914D02*
X70084524Y-73097676D01*
X70084524Y-73097676D02*
X70179762Y-73002438D01*
X70179762Y-73002438D02*
X70322619Y-72954819D01*
X70322619Y-72954819D02*
X70417857Y-72954819D01*
X70417857Y-72954819D02*
X70560714Y-73002438D01*
X70560714Y-73002438D02*
X70608333Y-73050057D01*
X70989286Y-73050057D02*
X71036905Y-73002438D01*
X71036905Y-73002438D02*
X71132143Y-72954819D01*
X71132143Y-72954819D02*
X71370238Y-72954819D01*
X71370238Y-72954819D02*
X71465476Y-73002438D01*
X71465476Y-73002438D02*
X71513095Y-73050057D01*
X71513095Y-73050057D02*
X71560714Y-73145295D01*
X71560714Y-73145295D02*
X71560714Y-73240533D01*
X71560714Y-73240533D02*
X71513095Y-73383390D01*
X71513095Y-73383390D02*
X70941667Y-73954819D01*
X70941667Y-73954819D02*
X71560714Y-73954819D01*
X50166666Y-77724819D02*
X50166666Y-78439104D01*
X50166666Y-78439104D02*
X50119047Y-78581961D01*
X50119047Y-78581961D02*
X50023809Y-78677200D01*
X50023809Y-78677200D02*
X49880952Y-78724819D01*
X49880952Y-78724819D02*
X49785714Y-78724819D01*
X50595238Y-77820057D02*
X50642857Y-77772438D01*
X50642857Y-77772438D02*
X50738095Y-77724819D01*
X50738095Y-77724819D02*
X50976190Y-77724819D01*
X50976190Y-77724819D02*
X51071428Y-77772438D01*
X51071428Y-77772438D02*
X51119047Y-77820057D01*
X51119047Y-77820057D02*
X51166666Y-77915295D01*
X51166666Y-77915295D02*
X51166666Y-78010533D01*
X51166666Y-78010533D02*
X51119047Y-78153390D01*
X51119047Y-78153390D02*
X50547619Y-78724819D01*
X50547619Y-78724819D02*
X51166666Y-78724819D01*
X53429580Y-73141666D02*
X53477200Y-73189285D01*
X53477200Y-73189285D02*
X53524819Y-73332142D01*
X53524819Y-73332142D02*
X53524819Y-73427380D01*
X53524819Y-73427380D02*
X53477200Y-73570237D01*
X53477200Y-73570237D02*
X53381961Y-73665475D01*
X53381961Y-73665475D02*
X53286723Y-73713094D01*
X53286723Y-73713094D02*
X53096247Y-73760713D01*
X53096247Y-73760713D02*
X52953390Y-73760713D01*
X52953390Y-73760713D02*
X52762914Y-73713094D01*
X52762914Y-73713094D02*
X52667676Y-73665475D01*
X52667676Y-73665475D02*
X52572438Y-73570237D01*
X52572438Y-73570237D02*
X52524819Y-73427380D01*
X52524819Y-73427380D02*
X52524819Y-73332142D01*
X52524819Y-73332142D02*
X52572438Y-73189285D01*
X52572438Y-73189285D02*
X52620057Y-73141666D01*
X52858152Y-72284523D02*
X53524819Y-72284523D01*
X52477200Y-72522618D02*
X53191485Y-72760713D01*
X53191485Y-72760713D02*
X53191485Y-72141666D01*
X67749819Y-102343333D02*
X68464104Y-102343333D01*
X68464104Y-102343333D02*
X68606961Y-102390952D01*
X68606961Y-102390952D02*
X68702200Y-102486190D01*
X68702200Y-102486190D02*
X68749819Y-102629047D01*
X68749819Y-102629047D02*
X68749819Y-102724285D01*
X68749819Y-101343333D02*
X68749819Y-101914761D01*
X68749819Y-101629047D02*
X67749819Y-101629047D01*
X67749819Y-101629047D02*
X67892676Y-101724285D01*
X67892676Y-101724285D02*
X67987914Y-101819523D01*
X67987914Y-101819523D02*
X68035533Y-101914761D01*
X62928095Y-52084819D02*
X62928095Y-52894342D01*
X62928095Y-52894342D02*
X62975714Y-52989580D01*
X62975714Y-52989580D02*
X63023333Y-53037200D01*
X63023333Y-53037200D02*
X63118571Y-53084819D01*
X63118571Y-53084819D02*
X63309047Y-53084819D01*
X63309047Y-53084819D02*
X63404285Y-53037200D01*
X63404285Y-53037200D02*
X63451904Y-52989580D01*
X63451904Y-52989580D02*
X63499523Y-52894342D01*
X63499523Y-52894342D02*
X63499523Y-52084819D01*
X63928095Y-52180057D02*
X63975714Y-52132438D01*
X63975714Y-52132438D02*
X64070952Y-52084819D01*
X64070952Y-52084819D02*
X64309047Y-52084819D01*
X64309047Y-52084819D02*
X64404285Y-52132438D01*
X64404285Y-52132438D02*
X64451904Y-52180057D01*
X64451904Y-52180057D02*
X64499523Y-52275295D01*
X64499523Y-52275295D02*
X64499523Y-52370533D01*
X64499523Y-52370533D02*
X64451904Y-52513390D01*
X64451904Y-52513390D02*
X63880476Y-53084819D01*
X63880476Y-53084819D02*
X64499523Y-53084819D01*
X52408628Y-79226190D02*
X52884819Y-79226190D01*
X51884819Y-79559523D02*
X52408628Y-79226190D01*
X52408628Y-79226190D02*
X51884819Y-78892857D01*
X51980057Y-78607142D02*
X51932438Y-78559523D01*
X51932438Y-78559523D02*
X51884819Y-78464285D01*
X51884819Y-78464285D02*
X51884819Y-78226190D01*
X51884819Y-78226190D02*
X51932438Y-78130952D01*
X51932438Y-78130952D02*
X51980057Y-78083333D01*
X51980057Y-78083333D02*
X52075295Y-78035714D01*
X52075295Y-78035714D02*
X52170533Y-78035714D01*
X52170533Y-78035714D02*
X52313390Y-78083333D01*
X52313390Y-78083333D02*
X52884819Y-78654761D01*
X52884819Y-78654761D02*
X52884819Y-78035714D01*
X80738095Y-103124819D02*
X81309523Y-103124819D01*
X81023809Y-104124819D02*
X81023809Y-103124819D01*
X81642857Y-104124819D02*
X81642857Y-103124819D01*
X81642857Y-103124819D02*
X82023809Y-103124819D01*
X82023809Y-103124819D02*
X82119047Y-103172438D01*
X82119047Y-103172438D02*
X82166666Y-103220057D01*
X82166666Y-103220057D02*
X82214285Y-103315295D01*
X82214285Y-103315295D02*
X82214285Y-103458152D01*
X82214285Y-103458152D02*
X82166666Y-103553390D01*
X82166666Y-103553390D02*
X82119047Y-103601009D01*
X82119047Y-103601009D02*
X82023809Y-103648628D01*
X82023809Y-103648628D02*
X81642857Y-103648628D01*
X83166666Y-104124819D02*
X82595238Y-104124819D01*
X82880952Y-104124819D02*
X82880952Y-103124819D01*
X82880952Y-103124819D02*
X82785714Y-103267676D01*
X82785714Y-103267676D02*
X82690476Y-103362914D01*
X82690476Y-103362914D02*
X82595238Y-103410533D01*
X62254819Y-93683333D02*
X62969104Y-93683333D01*
X62969104Y-93683333D02*
X63111961Y-93730952D01*
X63111961Y-93730952D02*
X63207200Y-93826190D01*
X63207200Y-93826190D02*
X63254819Y-93969047D01*
X63254819Y-93969047D02*
X63254819Y-94064285D01*
X63254819Y-93207142D02*
X62254819Y-93207142D01*
X62254819Y-93207142D02*
X62254819Y-92826190D01*
X62254819Y-92826190D02*
X62302438Y-92730952D01*
X62302438Y-92730952D02*
X62350057Y-92683333D01*
X62350057Y-92683333D02*
X62445295Y-92635714D01*
X62445295Y-92635714D02*
X62588152Y-92635714D01*
X62588152Y-92635714D02*
X62683390Y-92683333D01*
X62683390Y-92683333D02*
X62731009Y-92730952D01*
X62731009Y-92730952D02*
X62778628Y-92826190D01*
X62778628Y-92826190D02*
X62778628Y-93207142D01*
X63254819Y-91683333D02*
X63254819Y-92254761D01*
X63254819Y-91969047D02*
X62254819Y-91969047D01*
X62254819Y-91969047D02*
X62397676Y-92064285D01*
X62397676Y-92064285D02*
X62492914Y-92159523D01*
X62492914Y-92159523D02*
X62540533Y-92254761D01*
X70608333Y-69429580D02*
X70560714Y-69477200D01*
X70560714Y-69477200D02*
X70417857Y-69524819D01*
X70417857Y-69524819D02*
X70322619Y-69524819D01*
X70322619Y-69524819D02*
X70179762Y-69477200D01*
X70179762Y-69477200D02*
X70084524Y-69381961D01*
X70084524Y-69381961D02*
X70036905Y-69286723D01*
X70036905Y-69286723D02*
X69989286Y-69096247D01*
X69989286Y-69096247D02*
X69989286Y-68953390D01*
X69989286Y-68953390D02*
X70036905Y-68762914D01*
X70036905Y-68762914D02*
X70084524Y-68667676D01*
X70084524Y-68667676D02*
X70179762Y-68572438D01*
X70179762Y-68572438D02*
X70322619Y-68524819D01*
X70322619Y-68524819D02*
X70417857Y-68524819D01*
X70417857Y-68524819D02*
X70560714Y-68572438D01*
X70560714Y-68572438D02*
X70608333Y-68620057D01*
X71560714Y-69524819D02*
X70989286Y-69524819D01*
X71275000Y-69524819D02*
X71275000Y-68524819D01*
X71275000Y-68524819D02*
X71179762Y-68667676D01*
X71179762Y-68667676D02*
X71084524Y-68762914D01*
X71084524Y-68762914D02*
X70989286Y-68810533D01*
D13*
%TO.C,D1*%
X54101000Y-64330000D02*
X54420000Y-64330000D01*
X56580000Y-64330000D02*
X56899000Y-64330000D01*
X54101251Y-64330000D02*
G75*
G02*
X54419276Y-60026758I1398749J2060000D01*
G01*
X54420000Y-63953330D02*
G75*
G02*
X54419039Y-60587287I1080000J1683330D01*
G01*
X56580724Y-60026758D02*
G75*
G02*
X56898749Y-64330000I-1080724J-2243242D01*
G01*
X56580961Y-60587287D02*
G75*
G02*
X56580000Y-63953330I-1080961J-1682713D01*
G01*
%TO.C,J3*%
X73880000Y-56755000D02*
X73880000Y-51615000D01*
X73880000Y-59355000D02*
X73880000Y-58025000D01*
X75210000Y-59355000D02*
X73880000Y-59355000D01*
X76480000Y-56755000D02*
X73880000Y-56755000D01*
X76480000Y-59355000D02*
X76480000Y-56755000D01*
X79080000Y-51615000D02*
X73880000Y-51615000D01*
X79080000Y-59355000D02*
X76480000Y-59355000D01*
X79080000Y-59355000D02*
X79080000Y-51615000D01*
%TO.C,R1*%
X54590000Y-56185436D02*
X54590000Y-57639564D01*
X56410000Y-56185436D02*
X56410000Y-57639564D01*
%TO.C,C3*%
X56490000Y-73115580D02*
X56490000Y-72834420D01*
X57510000Y-73115580D02*
X57510000Y-72834420D01*
%TO.C,C2*%
X70634420Y-71490000D02*
X70915580Y-71490000D01*
X70634420Y-72510000D02*
X70915580Y-72510000D01*
%TO.C,J2*%
X49170000Y-74230000D02*
X49170000Y-66550000D01*
X49170000Y-76830000D02*
X49170000Y-75500000D01*
X50500000Y-76830000D02*
X49170000Y-76830000D01*
X51830000Y-66550000D02*
X49170000Y-66550000D01*
X51830000Y-74230000D02*
X49170000Y-74230000D01*
X51830000Y-74230000D02*
X51830000Y-66550000D01*
%TO.C,C4*%
X53990000Y-73115580D02*
X53990000Y-72834420D01*
X55010000Y-73115580D02*
X55010000Y-72834420D01*
%TO.C,J1*%
X59615000Y-99065000D02*
X59615000Y-101725000D01*
X59615000Y-101725000D02*
X67355000Y-101725000D01*
X60565000Y-98667929D02*
X60565000Y-99065000D01*
X60565000Y-107725000D02*
X60565000Y-101725000D01*
X61325000Y-98667929D02*
X61325000Y-99065000D01*
X61325000Y-101725000D02*
X61325000Y-107725000D01*
X61325000Y-107725000D02*
X60565000Y-107725000D01*
X62215000Y-99065000D02*
X62215000Y-101725000D01*
X63105000Y-98667929D02*
X63105000Y-99065000D01*
X63105000Y-107725000D02*
X63105000Y-101725000D01*
X63865000Y-98667929D02*
X63865000Y-99065000D01*
X63865000Y-101725000D02*
X63865000Y-107725000D01*
X63865000Y-107725000D02*
X63105000Y-107725000D01*
X64755000Y-99065000D02*
X64755000Y-101725000D01*
X65645000Y-98735000D02*
X65645000Y-99065000D01*
X65645000Y-107725000D02*
X65645000Y-101725000D01*
X65745000Y-101725000D02*
X65745000Y-107725000D01*
X65865000Y-101725000D02*
X65865000Y-107725000D01*
X65985000Y-101725000D02*
X65985000Y-107725000D01*
X66025000Y-96355000D02*
X67295000Y-96355000D01*
X66105000Y-101725000D02*
X66105000Y-107725000D01*
X66225000Y-101725000D02*
X66225000Y-107725000D01*
X66345000Y-101725000D02*
X66345000Y-107725000D01*
X66405000Y-98735000D02*
X66405000Y-99065000D01*
X66405000Y-101725000D02*
X66405000Y-107725000D01*
X66405000Y-107725000D02*
X65645000Y-107725000D01*
X67295000Y-96355000D02*
X67295000Y-97625000D01*
X67355000Y-99065000D02*
X59615000Y-99065000D01*
X67355000Y-101725000D02*
X67355000Y-99065000D01*
%TO.C,U2*%
X58550000Y-53570000D02*
X58550000Y-89370000D01*
X58550000Y-89370000D02*
X68830000Y-89370000D01*
X61040000Y-53630000D02*
X61040000Y-89310000D01*
X61040000Y-89310000D02*
X66340000Y-89310000D01*
X62690000Y-53630000D02*
X61040000Y-53630000D01*
X66340000Y-53630000D02*
X64690000Y-53630000D01*
X66340000Y-89310000D02*
X66340000Y-53630000D01*
X68830000Y-53570000D02*
X58550000Y-53570000D01*
X68830000Y-89370000D02*
X68830000Y-53570000D01*
X64690000Y-53630000D02*
G75*
G02*
X62690000Y-53630000I-1000000J0D01*
G01*
%TO.C,Y2*%
X53750000Y-78800000D02*
X53750000Y-87200000D01*
X53750000Y-87200000D02*
X57150000Y-87200000D01*
X54500000Y-77650000D02*
X54500000Y-77200000D01*
X54905000Y-78800000D02*
X54500000Y-77650000D01*
X55995000Y-78800000D02*
X56400000Y-77650000D01*
X56400000Y-77650000D02*
X56400000Y-77200000D01*
X57150000Y-78800000D02*
X53750000Y-78800000D01*
X57150000Y-87200000D02*
X57150000Y-78800000D01*
%TO.C,TP1*%
X80670000Y-104670000D02*
X82000000Y-104670000D01*
X80670000Y-106000000D02*
X80670000Y-104670000D01*
X80670000Y-107270000D02*
X80670000Y-107330000D01*
X80670000Y-107270000D02*
X83330000Y-107270000D01*
X80670000Y-107330000D02*
X83330000Y-107330000D01*
X83330000Y-107270000D02*
X83330000Y-107330000D01*
%TO.C,JP1*%
X60000000Y-91450000D02*
X62000000Y-91450000D01*
X60000000Y-94250000D02*
X60000000Y-91450000D01*
X62000000Y-91450000D02*
X62000000Y-94250000D01*
X62000000Y-94250000D02*
X60000000Y-94250000D01*
%TO.C,C1*%
X70634420Y-69990000D02*
X70915580Y-69990000D01*
X70634420Y-71010000D02*
X70915580Y-71010000D01*
%TD*%
%LPC*%
D14*
%TO.C,D1*%
X55500000Y-63540000D03*
D15*
X55500000Y-61000000D03*
%TD*%
D16*
%TO.C,J3*%
X75210000Y-58025000D03*
D17*
X77750000Y-58025000D03*
X75210000Y-55485000D03*
X77750000Y-55485000D03*
X75210000Y-52945000D03*
X77750000Y-52945000D03*
%TD*%
D18*
%TO.C,R1*%
X55500000Y-55450000D03*
X55500000Y-58375000D03*
%TD*%
D19*
%TO.C,C3*%
X57000000Y-73750000D03*
X57000000Y-72200000D03*
%TD*%
D20*
%TO.C,C2*%
X70000000Y-72000000D03*
X71550000Y-72000000D03*
%TD*%
D16*
%TO.C,J2*%
X50500000Y-75500000D03*
D17*
X50500000Y-72960000D03*
X50500000Y-70420000D03*
X50500000Y-67880000D03*
%TD*%
D19*
%TO.C,C4*%
X54500000Y-73750000D03*
X54500000Y-72200000D03*
%TD*%
D16*
%TO.C,J1*%
X66025000Y-97625000D03*
D17*
X63485000Y-97625000D03*
X60945000Y-97625000D03*
%TD*%
D21*
%TO.C,U2*%
X59880000Y-54960000D03*
D22*
X59880000Y-57500000D03*
X59880000Y-60040000D03*
X59880000Y-62580000D03*
X59880000Y-65120000D03*
X59880000Y-67660000D03*
X59880000Y-70200000D03*
X59880000Y-72740000D03*
X59880000Y-75280000D03*
X59880000Y-77820000D03*
X59880000Y-80360000D03*
X59880000Y-82900000D03*
X59880000Y-85440000D03*
X59880000Y-87980000D03*
X67500000Y-87980000D03*
X67500000Y-85440000D03*
X67500000Y-82900000D03*
X67500000Y-80360000D03*
X67500000Y-77820000D03*
X67500000Y-75280000D03*
X67500000Y-72740000D03*
X67500000Y-70200000D03*
X67500000Y-67660000D03*
X67500000Y-65120000D03*
X67500000Y-62580000D03*
X67500000Y-60040000D03*
X67500000Y-57500000D03*
X67500000Y-54960000D03*
%TD*%
D23*
%TO.C,Y2*%
X54500000Y-76500000D03*
X56400000Y-76500000D03*
%TD*%
D16*
%TO.C,TP1*%
X82000000Y-106000000D03*
%TD*%
D24*
%TO.C,JP1*%
X61000000Y-92200000D03*
X61000000Y-93500000D03*
%TD*%
D20*
%TO.C,C1*%
X70000000Y-70500000D03*
X71550000Y-70500000D03*
%TD*%
%LPD*%
M02*
